<?xml version="1.0" encoding="utf-8" standalone="no"?>
<!DOCTYPE svg PUBLIC "-//W3C//DTD SVG 1.1//EN"
  "http://www.w3.org/Graphics/SVG/1.1/DTD/svg11.dtd">
<!-- Created with matplotlib (https://matplotlib.org/) -->
<svg height="1072.464998pt" version="1.1" viewBox="0 0 1432.094846 1072.464998" width="1432.094846pt" xmlns="http://www.w3.org/2000/svg" xmlns:xlink="http://www.w3.org/1999/xlink">
 <defs>
  <style type="text/css">
*{stroke-linecap:butt;stroke-linejoin:round;}
  </style>
 </defs>
 <g id="figure_1">
  <g id="patch_1">
   <path d="M 0 1072.464998 
L 1432.094846 1072.464998 
L 1432.094846 0 
L 0 0 
z
" style="fill:none;"/>
  </g>
  <g id="axes_1">
   <g id="patch_2">
    <path d="M 53.328125 902.449121 
L 1424.894846 902.449121 
L 1424.894846 28.396875 
L 53.328125 28.396875 
z
" style="fill:#ffffff;"/>
   </g>
   <g id="patch_3">
    <path clip-path="url(#pca74d37982)" d="M 55.652814 902.449121 
L 74.250329 902.449121 
L 74.250329 805.186564 
L 55.652814 805.186564 
z
" style="fill:#ea96a3;"/>
   </g>
   <g id="patch_4">
    <path clip-path="url(#pca74d37982)" d="M 78.899708 902.449121 
L 97.497223 902.449121 
L 97.497223 70.018411 
L 78.899708 70.018411 
z
" style="fill:#ea979b;"/>
   </g>
   <g id="patch_5">
    <path clip-path="url(#pca74d37982)" d="M 102.146601 902.449121 
L 120.744116 902.449121 
L 120.744116 829.502203 
L 102.146601 829.502203 
z
" style="fill:#e99790;"/>
   </g>
   <g id="patch_6">
    <path clip-path="url(#pca74d37982)" d="M 125.393495 902.449121 
L 143.99101 902.449121 
L 143.99101 146.004783 
L 125.393495 146.004783 
z
" style="fill:#e79682;"/>
   </g>
   <g id="patch_7">
    <path clip-path="url(#pca74d37982)" d="M 148.640389 902.449121 
L 167.237903 902.449121 
L 167.237903 859.136889 
L 148.640389 859.136889 
z
" style="fill:#e5946f;"/>
   </g>
   <g id="patch_8">
    <path clip-path="url(#pca74d37982)" d="M 171.887282 902.449121 
L 190.484797 902.449121 
L 190.484797 775.171947 
L 171.887282 775.171947 
z
" style="fill:#e0914f;"/>
   </g>
   <g id="patch_9">
    <path clip-path="url(#pca74d37982)" d="M 195.134176 902.449121 
L 213.731691 902.449121 
L 213.731691 884.972255 
L 195.134176 884.972255 
z
" style="fill:#d6944e;"/>
   </g>
   <g id="patch_10">
    <path clip-path="url(#pca74d37982)" d="M 218.381069 902.449121 
L 236.978584 902.449121 
L 236.978584 753.515831 
L 218.381069 753.515831 
z
" style="fill:#cd974c;"/>
   </g>
   <g id="patch_11">
    <path clip-path="url(#pca74d37982)" d="M 241.627963 902.449121 
L 260.225478 902.449121 
L 260.225478 878.893345 
L 241.627963 878.893345 
z
" style="fill:#c5994b;"/>
   </g>
   <g id="patch_12">
    <path clip-path="url(#pca74d37982)" d="M 264.874856 902.449121 
L 283.472371 902.449121 
L 283.472371 855.717502 
L 264.874856 855.717502 
z
" style="fill:#be9b4a;"/>
   </g>
   <g id="patch_13">
    <path clip-path="url(#pca74d37982)" d="M 288.12175 902.449121 
L 306.719265 902.449121 
L 306.719265 859.136889 
L 288.12175 859.136889 
z
" style="fill:#b79c49;"/>
   </g>
   <g id="patch_14">
    <path clip-path="url(#pca74d37982)" d="M 311.368644 902.449121 
L 329.966158 902.449121 
L 329.966158 733.379442 
L 311.368644 733.379442 
z
" style="fill:#b19d48;"/>
   </g>
   <g id="patch_15">
    <path clip-path="url(#pca74d37982)" d="M 334.615537 902.449121 
L 353.213052 902.449121 
L 353.213052 665.751571 
L 334.615537 665.751571 
z
" style="fill:#aa9e47;"/>
   </g>
   <g id="patch_16">
    <path clip-path="url(#pca74d37982)" d="M 357.862431 902.449121 
L 376.459946 902.449121 
L 376.459946 712.103258 
L 357.862431 712.103258 
z
" style="fill:#a39f46;"/>
   </g>
   <g id="patch_17">
    <path clip-path="url(#pca74d37982)" d="M 381.109324 902.449121 
L 399.706839 902.449121 
L 399.706839 864.076003 
L 381.109324 864.076003 
z
" style="fill:#9da045;"/>
   </g>
   <g id="patch_18">
    <path clip-path="url(#pca74d37982)" d="M 404.356218 902.449121 
L 422.953733 902.449121 
L 422.953733 886.491983 
L 404.356218 886.491983 
z
" style="fill:#96a346;"/>
   </g>
   <g id="patch_19">
    <path clip-path="url(#pca74d37982)" d="M 427.603111 902.449121 
L 446.200626 902.449121 
L 446.200626 829.502203 
L 427.603111 829.502203 
z
" style="fill:#8fa546;"/>
   </g>
   <g id="patch_20">
    <path clip-path="url(#pca74d37982)" d="M 450.850005 902.449121 
L 469.44752 902.449121 
L 469.44752 786.569903 
L 450.850005 786.569903 
z
" style="fill:#86a746;"/>
   </g>
   <g id="patch_21">
    <path clip-path="url(#pca74d37982)" d="M 474.096899 902.449121 
L 492.694413 902.449121 
L 492.694413 878.893345 
L 474.096899 878.893345 
z
" style="fill:#7caa47;"/>
   </g>
   <g id="patch_22">
    <path clip-path="url(#pca74d37982)" d="M 497.343792 902.449121 
L 515.941307 902.449121 
L 515.941307 854.197774 
L 497.343792 854.197774 
z
" style="fill:#6dac47;"/>
   </g>
   <g id="patch_23">
    <path clip-path="url(#pca74d37982)" d="M 520.590686 902.449121 
L 539.188201 902.449121 
L 539.188201 798.347791 
L 520.590686 798.347791 
z
" style="fill:#57af47;"/>
   </g>
   <g id="patch_24">
    <path clip-path="url(#pca74d37982)" d="M 543.837579 902.449121 
L 562.435094 902.449121 
L 562.435094 871.294708 
L 543.837579 871.294708 
z
" style="fill:#48b05d;"/>
   </g>
   <g id="patch_25">
    <path clip-path="url(#pca74d37982)" d="M 567.084473 902.449121 
L 585.681988 902.449121 
L 585.681988 845.459342 
L 567.084473 845.459342 
z
" style="fill:#48af70;"/>
   </g>
   <g id="patch_26">
    <path clip-path="url(#pca74d37982)" d="M 590.331366 902.449121 
L 608.928881 902.449121 
L 608.928881 863.696071 
L 590.331366 863.696071 
z
" style="fill:#49ae7d;"/>
   </g>
   <g id="patch_27">
    <path clip-path="url(#pca74d37982)" d="M 613.57826 902.449121 
L 632.175775 902.449121 
L 632.175775 832.541658 
L 613.57826 832.541658 
z
" style="fill:#49ae86;"/>
   </g>
   <g id="patch_28">
    <path clip-path="url(#pca74d37982)" d="M 636.825154 902.449121 
L 655.422668 902.449121 
L 655.422668 889.151506 
L 636.825154 889.151506 
z
" style="fill:#4aad8d;"/>
   </g>
   <g id="patch_29">
    <path clip-path="url(#pca74d37982)" d="M 660.072047 902.449121 
L 678.669562 902.449121 
L 678.669562 790.369222 
L 660.072047 790.369222 
z
" style="fill:#4aad93;"/>
   </g>
   <g id="patch_30">
    <path clip-path="url(#pca74d37982)" d="M 683.318941 902.449121 
L 701.916456 902.449121 
L 701.916456 876.233822 
L 683.318941 876.233822 
z
" style="fill:#4aac99;"/>
   </g>
   <g id="patch_31">
    <path clip-path="url(#pca74d37982)" d="M 706.565834 902.449121 
L 725.163349 902.449121 
L 725.163349 885.732119 
L 706.565834 885.732119 
z
" style="fill:#4bac9e;"/>
   </g>
   <g id="patch_32">
    <path clip-path="url(#pca74d37982)" d="M 729.812728 902.449121 
L 748.410243 902.449121 
L 748.410243 873.194368 
L 729.812728 873.194368 
z
" style="fill:#4baba2;"/>
   </g>
   <g id="patch_33">
    <path clip-path="url(#pca74d37982)" d="M 753.059621 902.449121 
L 771.657136 902.449121 
L 771.657136 869.015117 
L 753.059621 869.015117 
z
" style="fill:#4baba6;"/>
   </g>
   <g id="patch_34">
    <path clip-path="url(#pca74d37982)" d="M 776.306515 902.449121 
L 794.90403 902.449121 
L 794.90403 844.699478 
L 776.306515 844.699478 
z
" style="fill:#4baaab;"/>
   </g>
   <g id="patch_35">
    <path clip-path="url(#pca74d37982)" d="M 799.553409 902.449121 
L 818.150923 902.449121 
L 818.150923 874.334163 
L 799.553409 874.334163 
z
" style="fill:#4cabaf;"/>
   </g>
   <g id="patch_36">
    <path clip-path="url(#pca74d37982)" d="M 822.800302 902.449121 
L 841.397817 902.449121 
L 841.397817 845.839273 
L 822.800302 845.839273 
z
" style="fill:#4dabb5;"/>
   </g>
   <g id="patch_37">
    <path clip-path="url(#pca74d37982)" d="M 846.047196 902.449121 
L 864.644711 902.449121 
L 864.644711 881.9328 
L 846.047196 881.9328 
z
" style="fill:#4fabba;"/>
   </g>
   <g id="patch_38">
    <path clip-path="url(#pca74d37982)" d="M 869.294089 902.449121 
L 887.891604 902.449121 
L 887.891604 882.312732 
L 869.294089 882.312732 
z
" style="fill:#50acc0;"/>
   </g>
   <g id="patch_39">
    <path clip-path="url(#pca74d37982)" d="M 892.540983 902.449121 
L 911.138498 902.449121 
L 911.138498 888.391642 
L 892.540983 888.391642 
z
" style="fill:#51acc7;"/>
   </g>
   <g id="patch_40">
    <path clip-path="url(#pca74d37982)" d="M 915.787876 902.449121 
L 934.385391 902.449121 
L 934.385391 854.197774 
L 915.787876 854.197774 
z
" style="fill:#53acce;"/>
   </g>
   <g id="patch_41">
    <path clip-path="url(#pca74d37982)" d="M 939.03477 902.449121 
L 957.632285 902.449121 
L 957.632285 888.01171 
L 939.03477 888.01171 
z
" style="fill:#55acd7;"/>
   </g>
   <g id="patch_42">
    <path clip-path="url(#pca74d37982)" d="M 962.281664 902.449121 
L 980.879178 902.449121 
L 980.879178 887.251846 
L 962.281664 887.251846 
z
" style="fill:#62ade1;"/>
   </g>
   <g id="patch_43">
    <path clip-path="url(#pca74d37982)" d="M 985.528557 902.449121 
L 1004.126072 902.449121 
L 1004.126072 876.993686 
L 985.528557 876.993686 
z
" style="fill:#7daee5;"/>
   </g>
   <g id="patch_44">
    <path clip-path="url(#pca74d37982)" d="M 1008.775451 902.449121 
L 1027.372966 902.449121 
L 1027.372966 876.613754 
L 1008.775451 876.613754 
z
" style="fill:#8faee7;"/>
   </g>
   <g id="patch_45">
    <path clip-path="url(#pca74d37982)" d="M 1032.022344 902.449121 
L 1050.619859 902.449121 
L 1050.619859 867.115458 
L 1032.022344 867.115458 
z
" style="fill:#9eade9;"/>
   </g>
   <g id="patch_46">
    <path clip-path="url(#pca74d37982)" d="M 1055.269238 902.449121 
L 1073.866753 902.449121 
L 1073.866753 883.072596 
L 1055.269238 883.072596 
z
" style="fill:#aaaceb;"/>
   </g>
   <g id="patch_47">
    <path clip-path="url(#pca74d37982)" d="M 1078.516131 902.449121 
L 1097.113646 902.449121 
L 1097.113646 884.212392 
L 1078.516131 884.212392 
z
" style="fill:#b4a9eb;"/>
   </g>
   <g id="patch_48">
    <path clip-path="url(#pca74d37982)" d="M 1101.763025 902.449121 
L 1120.36054 902.449121 
L 1120.36054 883.452528 
L 1101.763025 883.452528 
z
" style="fill:#bca5ea;"/>
   </g>
   <g id="patch_49">
    <path clip-path="url(#pca74d37982)" d="M 1125.009919 902.449121 
L 1143.607433 902.449121 
L 1143.607433 877.373618 
L 1125.009919 877.373618 
z
" style="fill:#c4a1ea;"/>
   </g>
   <g id="patch_50">
    <path clip-path="url(#pca74d37982)" d="M 1148.256812 902.449121 
L 1166.854327 902.449121 
L 1166.854327 885.732119 
L 1148.256812 885.732119 
z
" style="fill:#cc9ce9;"/>
   </g>
   <g id="patch_51">
    <path clip-path="url(#pca74d37982)" d="M 1171.503706 902.449121 
L 1190.101221 902.449121 
L 1190.101221 822.66343 
L 1171.503706 822.66343 
z
" style="fill:#d597e8;"/>
   </g>
   <g id="patch_52">
    <path clip-path="url(#pca74d37982)" d="M 1194.750599 902.449121 
L 1213.348114 902.449121 
L 1213.348114 882.312732 
L 1194.750599 882.312732 
z
" style="fill:#dd90e7;"/>
   </g>
   <g id="patch_53">
    <path clip-path="url(#pca74d37982)" d="M 1217.997493 902.449121 
L 1236.595008 902.449121 
L 1236.595008 888.01171 
L 1217.997493 888.01171 
z
" style="fill:#e688e6;"/>
   </g>
   <g id="patch_54">
    <path clip-path="url(#pca74d37982)" d="M 1241.244386 902.449121 
L 1259.841901 902.449121 
L 1259.841901 891.051165 
L 1241.244386 891.051165 
z
" style="fill:#e78bdd;"/>
   </g>
   <g id="patch_55">
    <path clip-path="url(#pca74d37982)" d="M 1264.49128 902.449121 
L 1283.088795 902.449121 
L 1283.088795 888.391642 
L 1264.49128 888.391642 
z
" style="fill:#e78dd4;"/>
   </g>
   <g id="patch_56">
    <path clip-path="url(#pca74d37982)" d="M 1287.738174 902.449121 
L 1306.335688 902.449121 
L 1306.335688 891.431097 
L 1287.738174 891.431097 
z
" style="fill:#e88fcd;"/>
   </g>
   <g id="patch_57">
    <path clip-path="url(#pca74d37982)" d="M 1310.985067 902.449121 
L 1329.582582 902.449121 
L 1329.582582 887.251846 
L 1310.985067 887.251846 
z
" style="fill:#e890c6;"/>
   </g>
   <g id="patch_58">
    <path clip-path="url(#pca74d37982)" d="M 1334.231961 902.449121 
L 1352.829476 902.449121 
L 1352.829476 885.352187 
L 1334.231961 885.352187 
z
" style="fill:#e891c0;"/>
   </g>
   <g id="patch_59">
    <path clip-path="url(#pca74d37982)" d="M 1357.478854 902.449121 
L 1376.076369 902.449121 
L 1376.076369 886.491983 
L 1357.478854 886.491983 
z
" style="fill:#e992b9;"/>
   </g>
   <g id="patch_60">
    <path clip-path="url(#pca74d37982)" d="M 1380.725748 902.449121 
L 1399.323263 902.449121 
L 1399.323263 888.771574 
L 1380.725748 888.771574 
z
" style="fill:#e994b3;"/>
   </g>
   <g id="patch_61">
    <path clip-path="url(#pca74d37982)" d="M 1403.972641 902.449121 
L 1422.570156 902.449121 
L 1422.570156 888.391642 
L 1403.972641 888.391642 
z
" style="fill:#e995ac;"/>
   </g>
   <g id="matplotlib.axis_1">
    <g id="xtick_1">
     <g id="line2d_1">
      <defs>
       <path d="M 0 0 
L 0 3.5 
" id="mcb6e20a0ac" style="stroke:#000000;stroke-width:0.8;"/>
      </defs>
      <g>
       <use style="stroke:#000000;stroke-width:0.8;" x="64.951572" xlink:href="#mcb6e20a0ac" y="902.449121"/>
      </g>
     </g>
     <g id="text_1">
      <!-- France -->
      <defs>
       <path d="M 9.8125 72.90625 
L 51.703125 72.90625 
L 51.703125 64.59375 
L 19.671875 64.59375 
L 19.671875 43.109375 
L 48.578125 43.109375 
L 48.578125 34.8125 
L 19.671875 34.8125 
L 19.671875 0 
L 9.8125 0 
z
" id="DejaVuSans-70"/>
       <path d="M 41.109375 46.296875 
Q 39.59375 47.171875 37.8125 47.578125 
Q 36.03125 48 33.890625 48 
Q 26.265625 48 22.1875 43.046875 
Q 18.109375 38.09375 18.109375 28.8125 
L 18.109375 0 
L 9.078125 0 
L 9.078125 54.6875 
L 18.109375 54.6875 
L 18.109375 46.1875 
Q 20.953125 51.171875 25.484375 53.578125 
Q 30.03125 56 36.53125 56 
Q 37.453125 56 38.578125 55.875 
Q 39.703125 55.765625 41.0625 55.515625 
z
" id="DejaVuSans-114"/>
       <path d="M 34.28125 27.484375 
Q 23.390625 27.484375 19.1875 25 
Q 14.984375 22.515625 14.984375 16.5 
Q 14.984375 11.71875 18.140625 8.90625 
Q 21.296875 6.109375 26.703125 6.109375 
Q 34.1875 6.109375 38.703125 11.40625 
Q 43.21875 16.703125 43.21875 25.484375 
L 43.21875 27.484375 
z
M 52.203125 31.203125 
L 52.203125 0 
L 43.21875 0 
L 43.21875 8.296875 
Q 40.140625 3.328125 35.546875 0.953125 
Q 30.953125 -1.421875 24.3125 -1.421875 
Q 15.921875 -1.421875 10.953125 3.296875 
Q 6 8.015625 6 15.921875 
Q 6 25.140625 12.171875 29.828125 
Q 18.359375 34.515625 30.609375 34.515625 
L 43.21875 34.515625 
L 43.21875 35.40625 
Q 43.21875 41.609375 39.140625 45 
Q 35.0625 48.390625 27.6875 48.390625 
Q 23 48.390625 18.546875 47.265625 
Q 14.109375 46.140625 10.015625 43.890625 
L 10.015625 52.203125 
Q 14.9375 54.109375 19.578125 55.046875 
Q 24.21875 56 28.609375 56 
Q 40.484375 56 46.34375 49.84375 
Q 52.203125 43.703125 52.203125 31.203125 
z
" id="DejaVuSans-97"/>
       <path d="M 54.890625 33.015625 
L 54.890625 0 
L 45.90625 0 
L 45.90625 32.71875 
Q 45.90625 40.484375 42.875 44.328125 
Q 39.84375 48.1875 33.796875 48.1875 
Q 26.515625 48.1875 22.3125 43.546875 
Q 18.109375 38.921875 18.109375 30.90625 
L 18.109375 0 
L 9.078125 0 
L 9.078125 54.6875 
L 18.109375 54.6875 
L 18.109375 46.1875 
Q 21.34375 51.125 25.703125 53.5625 
Q 30.078125 56 35.796875 56 
Q 45.21875 56 50.046875 50.171875 
Q 54.890625 44.34375 54.890625 33.015625 
z
" id="DejaVuSans-110"/>
       <path d="M 48.78125 52.59375 
L 48.78125 44.1875 
Q 44.96875 46.296875 41.140625 47.34375 
Q 37.3125 48.390625 33.40625 48.390625 
Q 24.65625 48.390625 19.8125 42.84375 
Q 14.984375 37.3125 14.984375 27.296875 
Q 14.984375 17.28125 19.8125 11.734375 
Q 24.65625 6.203125 33.40625 6.203125 
Q 37.3125 6.203125 41.140625 7.25 
Q 44.96875 8.296875 48.78125 10.40625 
L 48.78125 2.09375 
Q 45.015625 0.34375 40.984375 -0.53125 
Q 36.96875 -1.421875 32.421875 -1.421875 
Q 20.0625 -1.421875 12.78125 6.34375 
Q 5.515625 14.109375 5.515625 27.296875 
Q 5.515625 40.671875 12.859375 48.328125 
Q 20.21875 56 33.015625 56 
Q 37.15625 56 41.109375 55.140625 
Q 45.0625 54.296875 48.78125 52.59375 
z
" id="DejaVuSans-99"/>
       <path d="M 56.203125 29.59375 
L 56.203125 25.203125 
L 14.890625 25.203125 
Q 15.484375 15.921875 20.484375 11.0625 
Q 25.484375 6.203125 34.421875 6.203125 
Q 39.59375 6.203125 44.453125 7.46875 
Q 49.3125 8.734375 54.109375 11.28125 
L 54.109375 2.78125 
Q 49.265625 0.734375 44.1875 -0.34375 
Q 39.109375 -1.421875 33.890625 -1.421875 
Q 20.796875 -1.421875 13.15625 6.1875 
Q 5.515625 13.8125 5.515625 26.8125 
Q 5.515625 40.234375 12.765625 48.109375 
Q 20.015625 56 32.328125 56 
Q 43.359375 56 49.78125 48.890625 
Q 56.203125 41.796875 56.203125 29.59375 
z
M 47.21875 32.234375 
Q 47.125 39.59375 43.09375 43.984375 
Q 39.0625 48.390625 32.421875 48.390625 
Q 24.90625 48.390625 20.390625 44.140625 
Q 15.875 39.890625 15.1875 32.171875 
z
" id="DejaVuSans-101"/>
      </defs>
      <g transform="translate(35.112324 932.656905)rotate(-30)scale(0.1 -0.1)">
       <use xlink:href="#DejaVuSans-70"/>
       <use x="50.269531" xlink:href="#DejaVuSans-114"/>
       <use x="91.382812" xlink:href="#DejaVuSans-97"/>
       <use x="152.662109" xlink:href="#DejaVuSans-110"/>
       <use x="216.041016" xlink:href="#DejaVuSans-99"/>
       <use x="271.021484" xlink:href="#DejaVuSans-101"/>
      </g>
     </g>
    </g>
    <g id="xtick_2">
     <g id="line2d_2">
      <g>
       <use style="stroke:#000000;stroke-width:0.8;" x="88.198465" xlink:href="#mcb6e20a0ac" y="902.449121"/>
      </g>
     </g>
     <g id="text_2">
      <!-- India -->
      <defs>
       <path d="M 9.8125 72.90625 
L 19.671875 72.90625 
L 19.671875 0 
L 9.8125 0 
z
" id="DejaVuSans-73"/>
       <path d="M 45.40625 46.390625 
L 45.40625 75.984375 
L 54.390625 75.984375 
L 54.390625 0 
L 45.40625 0 
L 45.40625 8.203125 
Q 42.578125 3.328125 38.25 0.953125 
Q 33.9375 -1.421875 27.875 -1.421875 
Q 17.96875 -1.421875 11.734375 6.484375 
Q 5.515625 14.40625 5.515625 27.296875 
Q 5.515625 40.1875 11.734375 48.09375 
Q 17.96875 56 27.875 56 
Q 33.9375 56 38.25 53.625 
Q 42.578125 51.265625 45.40625 46.390625 
z
M 14.796875 27.296875 
Q 14.796875 17.390625 18.875 11.75 
Q 22.953125 6.109375 30.078125 6.109375 
Q 37.203125 6.109375 41.296875 11.75 
Q 45.40625 17.390625 45.40625 27.296875 
Q 45.40625 37.203125 41.296875 42.84375 
Q 37.203125 48.484375 30.078125 48.484375 
Q 22.953125 48.484375 18.875 42.84375 
Q 14.796875 37.203125 14.796875 27.296875 
z
" id="DejaVuSans-100"/>
       <path d="M 9.421875 54.6875 
L 18.40625 54.6875 
L 18.40625 0 
L 9.421875 0 
z
M 9.421875 75.984375 
L 18.40625 75.984375 
L 18.40625 64.59375 
L 9.421875 64.59375 
z
" id="DejaVuSans-105"/>
      </defs>
      <g transform="translate(65.904464 928.300655)rotate(-30)scale(0.1 -0.1)">
       <use xlink:href="#DejaVuSans-73"/>
       <use x="29.492188" xlink:href="#DejaVuSans-110"/>
       <use x="92.871094" xlink:href="#DejaVuSans-100"/>
       <use x="156.347656" xlink:href="#DejaVuSans-105"/>
       <use x="184.130859" xlink:href="#DejaVuSans-97"/>
      </g>
     </g>
    </g>
    <g id="xtick_3">
     <g id="line2d_3">
      <g>
       <use style="stroke:#000000;stroke-width:0.8;" x="111.445359" xlink:href="#mcb6e20a0ac" y="902.449121"/>
      </g>
     </g>
     <g id="text_3">
      <!-- Australia -->
      <defs>
       <path d="M 34.1875 63.1875 
L 20.796875 26.90625 
L 47.609375 26.90625 
z
M 28.609375 72.90625 
L 39.796875 72.90625 
L 67.578125 0 
L 57.328125 0 
L 50.6875 18.703125 
L 17.828125 18.703125 
L 11.1875 0 
L 0.78125 0 
z
" id="DejaVuSans-65"/>
       <path d="M 8.5 21.578125 
L 8.5 54.6875 
L 17.484375 54.6875 
L 17.484375 21.921875 
Q 17.484375 14.15625 20.5 10.265625 
Q 23.53125 6.390625 29.59375 6.390625 
Q 36.859375 6.390625 41.078125 11.03125 
Q 45.3125 15.671875 45.3125 23.6875 
L 45.3125 54.6875 
L 54.296875 54.6875 
L 54.296875 0 
L 45.3125 0 
L 45.3125 8.40625 
Q 42.046875 3.421875 37.71875 1 
Q 33.40625 -1.421875 27.6875 -1.421875 
Q 18.265625 -1.421875 13.375 4.4375 
Q 8.5 10.296875 8.5 21.578125 
z
M 31.109375 56 
z
" id="DejaVuSans-117"/>
       <path d="M 44.28125 53.078125 
L 44.28125 44.578125 
Q 40.484375 46.53125 36.375 47.5 
Q 32.28125 48.484375 27.875 48.484375 
Q 21.1875 48.484375 17.84375 46.4375 
Q 14.5 44.390625 14.5 40.28125 
Q 14.5 37.15625 16.890625 35.375 
Q 19.28125 33.59375 26.515625 31.984375 
L 29.59375 31.296875 
Q 39.15625 29.25 43.1875 25.515625 
Q 47.21875 21.78125 47.21875 15.09375 
Q 47.21875 7.46875 41.1875 3.015625 
Q 35.15625 -1.421875 24.609375 -1.421875 
Q 20.21875 -1.421875 15.453125 -0.5625 
Q 10.6875 0.296875 5.421875 2 
L 5.421875 11.28125 
Q 10.40625 8.6875 15.234375 7.390625 
Q 20.0625 6.109375 24.8125 6.109375 
Q 31.15625 6.109375 34.5625 8.28125 
Q 37.984375 10.453125 37.984375 14.40625 
Q 37.984375 18.0625 35.515625 20.015625 
Q 33.0625 21.96875 24.703125 23.78125 
L 21.578125 24.515625 
Q 13.234375 26.265625 9.515625 29.90625 
Q 5.8125 33.546875 5.8125 39.890625 
Q 5.8125 47.609375 11.28125 51.796875 
Q 16.75 56 26.8125 56 
Q 31.78125 56 36.171875 55.265625 
Q 40.578125 54.546875 44.28125 53.078125 
z
" id="DejaVuSans-115"/>
       <path d="M 18.3125 70.21875 
L 18.3125 54.6875 
L 36.8125 54.6875 
L 36.8125 47.703125 
L 18.3125 47.703125 
L 18.3125 18.015625 
Q 18.3125 11.328125 20.140625 9.421875 
Q 21.96875 7.515625 27.59375 7.515625 
L 36.8125 7.515625 
L 36.8125 0 
L 27.59375 0 
Q 17.1875 0 13.234375 3.875 
Q 9.28125 7.765625 9.28125 18.015625 
L 9.28125 47.703125 
L 2.6875 47.703125 
L 2.6875 54.6875 
L 9.28125 54.6875 
L 9.28125 70.21875 
z
" id="DejaVuSans-116"/>
       <path d="M 9.421875 75.984375 
L 18.40625 75.984375 
L 18.40625 0 
L 9.421875 0 
z
" id="DejaVuSans-108"/>
      </defs>
      <g transform="translate(72.100129 938.145186)rotate(-30)scale(0.1 -0.1)">
       <use xlink:href="#DejaVuSans-65"/>
       <use x="68.408203" xlink:href="#DejaVuSans-117"/>
       <use x="131.787109" xlink:href="#DejaVuSans-115"/>
       <use x="183.886719" xlink:href="#DejaVuSans-116"/>
       <use x="223.095703" xlink:href="#DejaVuSans-114"/>
       <use x="264.208984" xlink:href="#DejaVuSans-97"/>
       <use x="325.488281" xlink:href="#DejaVuSans-108"/>
       <use x="353.271484" xlink:href="#DejaVuSans-105"/>
       <use x="381.054688" xlink:href="#DejaVuSans-97"/>
      </g>
     </g>
    </g>
    <g id="xtick_4">
     <g id="line2d_4">
      <g>
       <use style="stroke:#000000;stroke-width:0.8;" x="134.692252" xlink:href="#mcb6e20a0ac" y="902.449121"/>
      </g>
     </g>
     <g id="text_4">
      <!-- United States of America -->
      <defs>
       <path d="M 8.6875 72.90625 
L 18.609375 72.90625 
L 18.609375 28.609375 
Q 18.609375 16.890625 22.84375 11.734375 
Q 27.09375 6.59375 36.625 6.59375 
Q 46.09375 6.59375 50.34375 11.734375 
Q 54.59375 16.890625 54.59375 28.609375 
L 54.59375 72.90625 
L 64.5 72.90625 
L 64.5 27.390625 
Q 64.5 13.140625 57.4375 5.859375 
Q 50.390625 -1.421875 36.625 -1.421875 
Q 22.796875 -1.421875 15.734375 5.859375 
Q 8.6875 13.140625 8.6875 27.390625 
z
" id="DejaVuSans-85"/>
       <path id="DejaVuSans-32"/>
       <path d="M 53.515625 70.515625 
L 53.515625 60.890625 
Q 47.90625 63.578125 42.921875 64.890625 
Q 37.9375 66.21875 33.296875 66.21875 
Q 25.25 66.21875 20.875 63.09375 
Q 16.5 59.96875 16.5 54.203125 
Q 16.5 49.359375 19.40625 46.890625 
Q 22.3125 44.4375 30.421875 42.921875 
L 36.375 41.703125 
Q 47.40625 39.59375 52.65625 34.296875 
Q 57.90625 29 57.90625 20.125 
Q 57.90625 9.515625 50.796875 4.046875 
Q 43.703125 -1.421875 29.984375 -1.421875 
Q 24.8125 -1.421875 18.96875 -0.25 
Q 13.140625 0.921875 6.890625 3.21875 
L 6.890625 13.375 
Q 12.890625 10.015625 18.65625 8.296875 
Q 24.421875 6.59375 29.984375 6.59375 
Q 38.421875 6.59375 43.015625 9.90625 
Q 47.609375 13.234375 47.609375 19.390625 
Q 47.609375 24.75 44.3125 27.78125 
Q 41.015625 30.8125 33.5 32.328125 
L 27.484375 33.5 
Q 16.453125 35.6875 11.515625 40.375 
Q 6.59375 45.0625 6.59375 53.421875 
Q 6.59375 63.09375 13.40625 68.65625 
Q 20.21875 74.21875 32.171875 74.21875 
Q 37.3125 74.21875 42.625 73.28125 
Q 47.953125 72.359375 53.515625 70.515625 
z
" id="DejaVuSans-83"/>
       <path d="M 30.609375 48.390625 
Q 23.390625 48.390625 19.1875 42.75 
Q 14.984375 37.109375 14.984375 27.296875 
Q 14.984375 17.484375 19.15625 11.84375 
Q 23.34375 6.203125 30.609375 6.203125 
Q 37.796875 6.203125 41.984375 11.859375 
Q 46.1875 17.53125 46.1875 27.296875 
Q 46.1875 37.015625 41.984375 42.703125 
Q 37.796875 48.390625 30.609375 48.390625 
z
M 30.609375 56 
Q 42.328125 56 49.015625 48.375 
Q 55.71875 40.765625 55.71875 27.296875 
Q 55.71875 13.875 49.015625 6.21875 
Q 42.328125 -1.421875 30.609375 -1.421875 
Q 18.84375 -1.421875 12.171875 6.21875 
Q 5.515625 13.875 5.515625 27.296875 
Q 5.515625 40.765625 12.171875 48.375 
Q 18.84375 56 30.609375 56 
z
" id="DejaVuSans-111"/>
       <path d="M 37.109375 75.984375 
L 37.109375 68.5 
L 28.515625 68.5 
Q 23.6875 68.5 21.796875 66.546875 
Q 19.921875 64.59375 19.921875 59.515625 
L 19.921875 54.6875 
L 34.71875 54.6875 
L 34.71875 47.703125 
L 19.921875 47.703125 
L 19.921875 0 
L 10.890625 0 
L 10.890625 47.703125 
L 2.296875 47.703125 
L 2.296875 54.6875 
L 10.890625 54.6875 
L 10.890625 58.5 
Q 10.890625 67.625 15.140625 71.796875 
Q 19.390625 75.984375 28.609375 75.984375 
z
" id="DejaVuSans-102"/>
       <path d="M 52 44.1875 
Q 55.375 50.25 60.0625 53.125 
Q 64.75 56 71.09375 56 
Q 79.640625 56 84.28125 50.015625 
Q 88.921875 44.046875 88.921875 33.015625 
L 88.921875 0 
L 79.890625 0 
L 79.890625 32.71875 
Q 79.890625 40.578125 77.09375 44.375 
Q 74.3125 48.1875 68.609375 48.1875 
Q 61.625 48.1875 57.5625 43.546875 
Q 53.515625 38.921875 53.515625 30.90625 
L 53.515625 0 
L 44.484375 0 
L 44.484375 32.71875 
Q 44.484375 40.625 41.703125 44.40625 
Q 38.921875 48.1875 33.109375 48.1875 
Q 26.21875 48.1875 22.15625 43.53125 
Q 18.109375 38.875 18.109375 30.90625 
L 18.109375 0 
L 9.078125 0 
L 9.078125 54.6875 
L 18.109375 54.6875 
L 18.109375 46.1875 
Q 21.1875 51.21875 25.484375 53.609375 
Q 29.78125 56 35.6875 56 
Q 41.65625 56 45.828125 52.96875 
Q 50 49.953125 52 44.1875 
z
" id="DejaVuSans-109"/>
      </defs>
      <g transform="translate(25.434416 978.509248)rotate(-30)scale(0.1 -0.1)">
       <use xlink:href="#DejaVuSans-85"/>
       <use x="73.193359" xlink:href="#DejaVuSans-110"/>
       <use x="136.572266" xlink:href="#DejaVuSans-105"/>
       <use x="164.355469" xlink:href="#DejaVuSans-116"/>
       <use x="203.564453" xlink:href="#DejaVuSans-101"/>
       <use x="265.087891" xlink:href="#DejaVuSans-100"/>
       <use x="328.564453" xlink:href="#DejaVuSans-32"/>
       <use x="360.351562" xlink:href="#DejaVuSans-83"/>
       <use x="423.828125" xlink:href="#DejaVuSans-116"/>
       <use x="463.037109" xlink:href="#DejaVuSans-97"/>
       <use x="524.316406" xlink:href="#DejaVuSans-116"/>
       <use x="563.525391" xlink:href="#DejaVuSans-101"/>
       <use x="625.048828" xlink:href="#DejaVuSans-115"/>
       <use x="677.148438" xlink:href="#DejaVuSans-32"/>
       <use x="708.935547" xlink:href="#DejaVuSans-111"/>
       <use x="770.117188" xlink:href="#DejaVuSans-102"/>
       <use x="805.322266" xlink:href="#DejaVuSans-32"/>
       <use x="837.109375" xlink:href="#DejaVuSans-65"/>
       <use x="905.517578" xlink:href="#DejaVuSans-109"/>
       <use x="1002.929688" xlink:href="#DejaVuSans-101"/>
       <use x="1064.453125" xlink:href="#DejaVuSans-114"/>
       <use x="1105.566406" xlink:href="#DejaVuSans-105"/>
       <use x="1133.349609" xlink:href="#DejaVuSans-99"/>
       <use x="1188.330078" xlink:href="#DejaVuSans-97"/>
      </g>
     </g>
    </g>
    <g id="xtick_5">
     <g id="line2d_5">
      <g>
       <use style="stroke:#000000;stroke-width:0.8;" x="157.939146" xlink:href="#mcb6e20a0ac" y="902.449121"/>
      </g>
     </g>
     <g id="text_5">
      <!-- Netherlands -->
      <defs>
       <path d="M 9.8125 72.90625 
L 23.09375 72.90625 
L 55.421875 11.921875 
L 55.421875 72.90625 
L 64.984375 72.90625 
L 64.984375 0 
L 51.703125 0 
L 19.390625 60.984375 
L 19.390625 0 
L 9.8125 0 
z
" id="DejaVuSans-78"/>
       <path d="M 54.890625 33.015625 
L 54.890625 0 
L 45.90625 0 
L 45.90625 32.71875 
Q 45.90625 40.484375 42.875 44.328125 
Q 39.84375 48.1875 33.796875 48.1875 
Q 26.515625 48.1875 22.3125 43.546875 
Q 18.109375 38.921875 18.109375 30.90625 
L 18.109375 0 
L 9.078125 0 
L 9.078125 75.984375 
L 18.109375 75.984375 
L 18.109375 46.1875 
Q 21.34375 51.125 25.703125 53.5625 
Q 30.078125 56 35.796875 56 
Q 45.21875 56 50.046875 50.171875 
Q 54.890625 44.34375 54.890625 33.015625 
z
" id="DejaVuSans-104"/>
      </defs>
      <g transform="translate(104.108288 946.508467)rotate(-30)scale(0.1 -0.1)">
       <use xlink:href="#DejaVuSans-78"/>
       <use x="74.804688" xlink:href="#DejaVuSans-101"/>
       <use x="136.328125" xlink:href="#DejaVuSans-116"/>
       <use x="175.537109" xlink:href="#DejaVuSans-104"/>
       <use x="238.916016" xlink:href="#DejaVuSans-101"/>
       <use x="300.439453" xlink:href="#DejaVuSans-114"/>
       <use x="341.552734" xlink:href="#DejaVuSans-108"/>
       <use x="369.335938" xlink:href="#DejaVuSans-97"/>
       <use x="430.615234" xlink:href="#DejaVuSans-110"/>
       <use x="493.994141" xlink:href="#DejaVuSans-100"/>
       <use x="557.470703" xlink:href="#DejaVuSans-115"/>
      </g>
     </g>
    </g>
    <g id="xtick_6">
     <g id="line2d_6">
      <g>
       <use style="stroke:#000000;stroke-width:0.8;" x="181.18604" xlink:href="#mcb6e20a0ac" y="902.449121"/>
      </g>
     </g>
     <g id="text_6">
      <!-- Germany -->
      <defs>
       <path d="M 59.515625 10.40625 
L 59.515625 29.984375 
L 43.40625 29.984375 
L 43.40625 38.09375 
L 69.28125 38.09375 
L 69.28125 6.78125 
Q 63.578125 2.734375 56.6875 0.65625 
Q 49.8125 -1.421875 42 -1.421875 
Q 24.90625 -1.421875 15.25 8.5625 
Q 5.609375 18.5625 5.609375 36.375 
Q 5.609375 54.25 15.25 64.234375 
Q 24.90625 74.21875 42 74.21875 
Q 49.125 74.21875 55.546875 72.453125 
Q 61.96875 70.703125 67.390625 67.28125 
L 67.390625 56.78125 
Q 61.921875 61.421875 55.765625 63.765625 
Q 49.609375 66.109375 42.828125 66.109375 
Q 29.4375 66.109375 22.71875 58.640625 
Q 16.015625 51.171875 16.015625 36.375 
Q 16.015625 21.625 22.71875 14.15625 
Q 29.4375 6.6875 42.828125 6.6875 
Q 48.046875 6.6875 52.140625 7.59375 
Q 56.25 8.5 59.515625 10.40625 
z
" id="DejaVuSans-71"/>
       <path d="M 32.171875 -5.078125 
Q 28.375 -14.84375 24.75 -17.8125 
Q 21.140625 -20.796875 15.09375 -20.796875 
L 7.90625 -20.796875 
L 7.90625 -13.28125 
L 13.1875 -13.28125 
Q 16.890625 -13.28125 18.9375 -11.515625 
Q 21 -9.765625 23.484375 -3.21875 
L 25.09375 0.875 
L 2.984375 54.6875 
L 12.5 54.6875 
L 29.59375 11.921875 
L 46.6875 54.6875 
L 56.203125 54.6875 
z
" id="DejaVuSans-121"/>
      </defs>
      <g transform="translate(140.341503 939.010811)rotate(-30)scale(0.1 -0.1)">
       <use xlink:href="#DejaVuSans-71"/>
       <use x="77.490234" xlink:href="#DejaVuSans-101"/>
       <use x="139.013672" xlink:href="#DejaVuSans-114"/>
       <use x="178.376953" xlink:href="#DejaVuSans-109"/>
       <use x="275.789062" xlink:href="#DejaVuSans-97"/>
       <use x="337.068359" xlink:href="#DejaVuSans-110"/>
       <use x="400.447266" xlink:href="#DejaVuSans-121"/>
      </g>
     </g>
    </g>
    <g id="xtick_7">
     <g id="line2d_7">
      <g>
       <use style="stroke:#000000;stroke-width:0.8;" x="204.432933" xlink:href="#mcb6e20a0ac" y="902.449121"/>
      </g>
     </g>
     <g id="text_7">
      <!-- Ireland -->
      <g transform="translate(173.444848 933.320186)rotate(-30)scale(0.1 -0.1)">
       <use xlink:href="#DejaVuSans-73"/>
       <use x="29.492188" xlink:href="#DejaVuSans-114"/>
       <use x="68.355469" xlink:href="#DejaVuSans-101"/>
       <use x="129.878906" xlink:href="#DejaVuSans-108"/>
       <use x="157.662109" xlink:href="#DejaVuSans-97"/>
       <use x="218.941406" xlink:href="#DejaVuSans-110"/>
       <use x="282.320312" xlink:href="#DejaVuSans-100"/>
      </g>
     </g>
    </g>
    <g id="xtick_8">
     <g id="line2d_8">
      <g>
       <use style="stroke:#000000;stroke-width:0.8;" x="227.679827" xlink:href="#mcb6e20a0ac" y="902.449121"/>
      </g>
     </g>
     <g id="text_8">
      <!-- Russia -->
      <defs>
       <path d="M 44.390625 34.1875 
Q 47.5625 33.109375 50.5625 29.59375 
Q 53.5625 26.078125 56.59375 19.921875 
L 66.609375 0 
L 56 0 
L 46.6875 18.703125 
Q 43.0625 26.03125 39.671875 28.421875 
Q 36.28125 30.8125 30.421875 30.8125 
L 19.671875 30.8125 
L 19.671875 0 
L 9.8125 0 
L 9.8125 72.90625 
L 32.078125 72.90625 
Q 44.578125 72.90625 50.734375 67.671875 
Q 56.890625 62.453125 56.890625 51.90625 
Q 56.890625 45.015625 53.6875 40.46875 
Q 50.484375 35.9375 44.390625 34.1875 
z
M 19.671875 64.796875 
L 19.671875 38.921875 
L 32.078125 38.921875 
Q 39.203125 38.921875 42.84375 42.21875 
Q 46.484375 45.515625 46.484375 51.90625 
Q 46.484375 58.296875 42.84375 61.546875 
Q 39.203125 64.796875 32.078125 64.796875 
z
" id="DejaVuSans-82"/>
      </defs>
      <g transform="translate(198.787794 932.11003)rotate(-30)scale(0.1 -0.1)">
       <use xlink:href="#DejaVuSans-82"/>
       <use x="64.982422" xlink:href="#DejaVuSans-117"/>
       <use x="128.361328" xlink:href="#DejaVuSans-115"/>
       <use x="180.460938" xlink:href="#DejaVuSans-115"/>
       <use x="232.560547" xlink:href="#DejaVuSans-105"/>
       <use x="260.34375" xlink:href="#DejaVuSans-97"/>
      </g>
     </g>
    </g>
    <g id="xtick_9">
     <g id="line2d_9">
      <g>
       <use style="stroke:#000000;stroke-width:0.8;" x="250.92672" xlink:href="#mcb6e20a0ac" y="902.449121"/>
      </g>
     </g>
     <g id="text_9">
      <!-- Greece -->
      <g transform="translate(219.063138 933.825655)rotate(-30)scale(0.1 -0.1)">
       <use xlink:href="#DejaVuSans-71"/>
       <use x="77.490234" xlink:href="#DejaVuSans-114"/>
       <use x="116.353516" xlink:href="#DejaVuSans-101"/>
       <use x="177.876953" xlink:href="#DejaVuSans-101"/>
       <use x="239.400391" xlink:href="#DejaVuSans-99"/>
       <use x="294.380859" xlink:href="#DejaVuSans-101"/>
      </g>
     </g>
    </g>
    <g id="xtick_10">
     <g id="line2d_10">
      <g>
       <use style="stroke:#000000;stroke-width:0.8;" x="274.173614" xlink:href="#mcb6e20a0ac" y="902.449121"/>
      </g>
     </g>
     <g id="text_10">
      <!-- Ukraine -->
      <defs>
       <path d="M 9.078125 75.984375 
L 18.109375 75.984375 
L 18.109375 31.109375 
L 44.921875 54.6875 
L 56.390625 54.6875 
L 27.390625 29.109375 
L 57.625 0 
L 45.90625 0 
L 18.109375 26.703125 
L 18.109375 0 
L 9.078125 0 
z
" id="DejaVuSans-107"/>
      </defs>
      <g transform="translate(239.690305 935.338155)rotate(-30)scale(0.1 -0.1)">
       <use xlink:href="#DejaVuSans-85"/>
       <use x="73.193359" xlink:href="#DejaVuSans-107"/>
       <use x="131.103516" xlink:href="#DejaVuSans-114"/>
       <use x="172.216797" xlink:href="#DejaVuSans-97"/>
       <use x="233.496094" xlink:href="#DejaVuSans-105"/>
       <use x="261.279297" xlink:href="#DejaVuSans-110"/>
       <use x="324.658203" xlink:href="#DejaVuSans-101"/>
      </g>
     </g>
    </g>
    <g id="xtick_11">
     <g id="line2d_11">
      <g>
       <use style="stroke:#000000;stroke-width:0.8;" x="297.420507" xlink:href="#mcb6e20a0ac" y="902.449121"/>
      </g>
     </g>
     <g id="text_11">
      <!-- Pakistan -->
      <defs>
       <path d="M 19.671875 64.796875 
L 19.671875 37.40625 
L 32.078125 37.40625 
Q 38.96875 37.40625 42.71875 40.96875 
Q 46.484375 44.53125 46.484375 51.125 
Q 46.484375 57.671875 42.71875 61.234375 
Q 38.96875 64.796875 32.078125 64.796875 
z
M 9.8125 72.90625 
L 32.078125 72.90625 
Q 44.34375 72.90625 50.609375 67.359375 
Q 56.890625 61.8125 56.890625 51.125 
Q 56.890625 40.328125 50.609375 34.8125 
Q 44.34375 29.296875 32.078125 29.296875 
L 19.671875 29.296875 
L 19.671875 0 
L 9.8125 0 
z
" id="DejaVuSans-80"/>
      </defs>
      <g transform="translate(260.118556 936.965498)rotate(-30)scale(0.1 -0.1)">
       <use xlink:href="#DejaVuSans-80"/>
       <use x="55.802734" xlink:href="#DejaVuSans-97"/>
       <use x="117.082031" xlink:href="#DejaVuSans-107"/>
       <use x="174.992188" xlink:href="#DejaVuSans-105"/>
       <use x="202.775391" xlink:href="#DejaVuSans-115"/>
       <use x="254.875" xlink:href="#DejaVuSans-116"/>
       <use x="294.083984" xlink:href="#DejaVuSans-97"/>
       <use x="355.363281" xlink:href="#DejaVuSans-110"/>
      </g>
     </g>
    </g>
    <g id="xtick_12">
     <g id="line2d_12">
      <g>
       <use style="stroke:#000000;stroke-width:0.8;" x="320.667401" xlink:href="#mcb6e20a0ac" y="902.449121"/>
      </g>
     </g>
     <g id="text_12">
      <!-- Japan -->
      <defs>
       <path d="M 9.8125 72.90625 
L 19.671875 72.90625 
L 19.671875 5.078125 
Q 19.671875 -8.109375 14.671875 -14.0625 
Q 9.671875 -20.015625 -1.421875 -20.015625 
L -5.171875 -20.015625 
L -5.171875 -11.71875 
L -2.09375 -11.71875 
Q 4.4375 -11.71875 7.125 -8.046875 
Q 9.8125 -4.390625 9.8125 5.078125 
z
" id="DejaVuSans-74"/>
       <path d="M 18.109375 8.203125 
L 18.109375 -20.796875 
L 9.078125 -20.796875 
L 9.078125 54.6875 
L 18.109375 54.6875 
L 18.109375 46.390625 
Q 20.953125 51.265625 25.265625 53.625 
Q 29.59375 56 35.59375 56 
Q 45.5625 56 51.78125 48.09375 
Q 58.015625 40.1875 58.015625 27.296875 
Q 58.015625 14.40625 51.78125 6.484375 
Q 45.5625 -1.421875 35.59375 -1.421875 
Q 29.59375 -1.421875 25.265625 0.953125 
Q 20.953125 3.328125 18.109375 8.203125 
z
M 48.6875 27.296875 
Q 48.6875 37.203125 44.609375 42.84375 
Q 40.53125 48.484375 33.40625 48.484375 
Q 26.265625 48.484375 22.1875 42.84375 
Q 18.109375 37.203125 18.109375 27.296875 
Q 18.109375 17.390625 22.1875 11.75 
Q 26.265625 6.109375 33.40625 6.109375 
Q 40.53125 6.109375 44.609375 11.75 
Q 48.6875 17.390625 48.6875 27.296875 
z
" id="DejaVuSans-112"/>
      </defs>
      <g transform="translate(295.472214 929.975655)rotate(-30)scale(0.1 -0.1)">
       <use xlink:href="#DejaVuSans-74"/>
       <use x="29.492188" xlink:href="#DejaVuSans-97"/>
       <use x="90.771484" xlink:href="#DejaVuSans-112"/>
       <use x="154.248047" xlink:href="#DejaVuSans-97"/>
       <use x="215.527344" xlink:href="#DejaVuSans-110"/>
      </g>
     </g>
    </g>
    <g id="xtick_13">
     <g id="line2d_13">
      <g>
       <use style="stroke:#000000;stroke-width:0.8;" x="343.914295" xlink:href="#mcb6e20a0ac" y="902.449121"/>
      </g>
     </g>
     <g id="text_13">
      <!-- Other -->
      <defs>
       <path d="M 39.40625 66.21875 
Q 28.65625 66.21875 22.328125 58.203125 
Q 16.015625 50.203125 16.015625 36.375 
Q 16.015625 22.609375 22.328125 14.59375 
Q 28.65625 6.59375 39.40625 6.59375 
Q 50.140625 6.59375 56.421875 14.59375 
Q 62.703125 22.609375 62.703125 36.375 
Q 62.703125 50.203125 56.421875 58.203125 
Q 50.140625 66.21875 39.40625 66.21875 
z
M 39.40625 74.21875 
Q 54.734375 74.21875 63.90625 63.9375 
Q 73.09375 53.65625 73.09375 36.375 
Q 73.09375 19.140625 63.90625 8.859375 
Q 54.734375 -1.421875 39.40625 -1.421875 
Q 24.03125 -1.421875 14.8125 8.828125 
Q 5.609375 19.09375 5.609375 36.375 
Q 5.609375 53.65625 14.8125 63.9375 
Q 24.03125 74.21875 39.40625 74.21875 
z
" id="DejaVuSans-79"/>
      </defs>
      <g transform="translate(318.284742 930.226436)rotate(-30)scale(0.1 -0.1)">
       <use xlink:href="#DejaVuSans-79"/>
       <use x="78.710938" xlink:href="#DejaVuSans-116"/>
       <use x="117.919922" xlink:href="#DejaVuSans-104"/>
       <use x="181.298828" xlink:href="#DejaVuSans-101"/>
       <use x="242.822266" xlink:href="#DejaVuSans-114"/>
      </g>
     </g>
    </g>
    <g id="xtick_14">
     <g id="line2d_14">
      <g>
       <use style="stroke:#000000;stroke-width:0.8;" x="367.161188" xlink:href="#mcb6e20a0ac" y="902.449121"/>
      </g>
     </g>
     <g id="text_14">
      <!-- Brazil -->
      <defs>
       <path d="M 19.671875 34.8125 
L 19.671875 8.109375 
L 35.5 8.109375 
Q 43.453125 8.109375 47.28125 11.40625 
Q 51.125 14.703125 51.125 21.484375 
Q 51.125 28.328125 47.28125 31.5625 
Q 43.453125 34.8125 35.5 34.8125 
z
M 19.671875 64.796875 
L 19.671875 42.828125 
L 34.28125 42.828125 
Q 41.5 42.828125 45.03125 45.53125 
Q 48.578125 48.25 48.578125 53.8125 
Q 48.578125 59.328125 45.03125 62.0625 
Q 41.5 64.796875 34.28125 64.796875 
z
M 9.8125 72.90625 
L 35.015625 72.90625 
Q 46.296875 72.90625 52.390625 68.21875 
Q 58.5 63.53125 58.5 54.890625 
Q 58.5 48.1875 55.375 44.234375 
Q 52.25 40.28125 46.1875 39.3125 
Q 53.46875 37.75 57.5 32.78125 
Q 61.53125 27.828125 61.53125 20.40625 
Q 61.53125 10.640625 54.890625 5.3125 
Q 48.25 0 35.984375 0 
L 9.8125 0 
z
" id="DejaVuSans-66"/>
       <path d="M 5.515625 54.6875 
L 48.1875 54.6875 
L 48.1875 46.484375 
L 14.40625 7.171875 
L 48.1875 7.171875 
L 48.1875 0 
L 4.296875 0 
L 4.296875 8.203125 
L 38.09375 47.515625 
L 5.515625 47.515625 
z
" id="DejaVuSans-122"/>
      </defs>
      <g transform="translate(341.955176 929.981905)rotate(-30)scale(0.1 -0.1)">
       <use xlink:href="#DejaVuSans-66"/>
       <use x="68.603516" xlink:href="#DejaVuSans-114"/>
       <use x="109.716797" xlink:href="#DejaVuSans-97"/>
       <use x="170.996094" xlink:href="#DejaVuSans-122"/>
       <use x="223.486328" xlink:href="#DejaVuSans-105"/>
       <use x="251.269531" xlink:href="#DejaVuSans-108"/>
      </g>
     </g>
    </g>
    <g id="xtick_15">
     <g id="line2d_15">
      <g>
       <use style="stroke:#000000;stroke-width:0.8;" x="390.408082" xlink:href="#mcb6e20a0ac" y="902.449121"/>
      </g>
     </g>
     <g id="text_15">
      <!-- South Korea -->
      <defs>
       <path d="M 9.8125 72.90625 
L 19.671875 72.90625 
L 19.671875 42.09375 
L 52.390625 72.90625 
L 65.09375 72.90625 
L 28.90625 38.921875 
L 67.671875 0 
L 54.6875 0 
L 19.671875 35.109375 
L 19.671875 0 
L 9.8125 0 
z
" id="DejaVuSans-75"/>
      </defs>
      <g transform="translate(336.90063 946.321748)rotate(-30)scale(0.1 -0.1)">
       <use xlink:href="#DejaVuSans-83"/>
       <use x="63.476562" xlink:href="#DejaVuSans-111"/>
       <use x="124.658203" xlink:href="#DejaVuSans-117"/>
       <use x="188.037109" xlink:href="#DejaVuSans-116"/>
       <use x="227.246094" xlink:href="#DejaVuSans-104"/>
       <use x="290.625" xlink:href="#DejaVuSans-32"/>
       <use x="322.412109" xlink:href="#DejaVuSans-75"/>
       <use x="382.988281" xlink:href="#DejaVuSans-111"/>
       <use x="444.169922" xlink:href="#DejaVuSans-114"/>
       <use x="483.033203" xlink:href="#DejaVuSans-101"/>
       <use x="544.556641" xlink:href="#DejaVuSans-97"/>
      </g>
     </g>
    </g>
    <g id="xtick_16">
     <g id="line2d_16">
      <g>
       <use style="stroke:#000000;stroke-width:0.8;" x="413.654975" xlink:href="#mcb6e20a0ac" y="902.449121"/>
      </g>
     </g>
     <g id="text_16">
      <!-- Belarus -->
      <g transform="translate(380.071521 934.818623)rotate(-30)scale(0.1 -0.1)">
       <use xlink:href="#DejaVuSans-66"/>
       <use x="68.603516" xlink:href="#DejaVuSans-101"/>
       <use x="130.126953" xlink:href="#DejaVuSans-108"/>
       <use x="157.910156" xlink:href="#DejaVuSans-97"/>
       <use x="219.189453" xlink:href="#DejaVuSans-114"/>
       <use x="260.302734" xlink:href="#DejaVuSans-117"/>
       <use x="323.681641" xlink:href="#DejaVuSans-115"/>
      </g>
     </g>
    </g>
    <g id="xtick_17">
     <g id="line2d_17">
      <g>
       <use style="stroke:#000000;stroke-width:0.8;" x="436.901869" xlink:href="#mcb6e20a0ac" y="902.449121"/>
      </g>
     </g>
     <g id="text_17">
      <!-- Nigeria -->
      <defs>
       <path d="M 45.40625 27.984375 
Q 45.40625 37.75 41.375 43.109375 
Q 37.359375 48.484375 30.078125 48.484375 
Q 22.859375 48.484375 18.828125 43.109375 
Q 14.796875 37.75 14.796875 27.984375 
Q 14.796875 18.265625 18.828125 12.890625 
Q 22.859375 7.515625 30.078125 7.515625 
Q 37.359375 7.515625 41.375 12.890625 
Q 45.40625 18.265625 45.40625 27.984375 
z
M 54.390625 6.78125 
Q 54.390625 -7.171875 48.1875 -13.984375 
Q 42 -20.796875 29.203125 -20.796875 
Q 24.46875 -20.796875 20.265625 -20.09375 
Q 16.0625 -19.390625 12.109375 -17.921875 
L 12.109375 -9.1875 
Q 16.0625 -11.328125 19.921875 -12.34375 
Q 23.78125 -13.375 27.78125 -13.375 
Q 36.625 -13.375 41.015625 -8.765625 
Q 45.40625 -4.15625 45.40625 5.171875 
L 45.40625 9.625 
Q 42.625 4.78125 38.28125 2.390625 
Q 33.9375 0 27.875 0 
Q 17.828125 0 11.671875 7.65625 
Q 5.515625 15.328125 5.515625 27.984375 
Q 5.515625 40.671875 11.671875 48.328125 
Q 17.828125 56 27.875 56 
Q 33.9375 56 38.28125 53.609375 
Q 42.625 51.21875 45.40625 46.390625 
L 45.40625 54.6875 
L 54.390625 54.6875 
z
" id="DejaVuSans-103"/>
      </defs>
      <g transform="translate(404.87726 933.918623)rotate(-30)scale(0.1 -0.1)">
       <use xlink:href="#DejaVuSans-78"/>
       <use x="74.804688" xlink:href="#DejaVuSans-105"/>
       <use x="102.587891" xlink:href="#DejaVuSans-103"/>
       <use x="166.064453" xlink:href="#DejaVuSans-101"/>
       <use x="227.587891" xlink:href="#DejaVuSans-114"/>
       <use x="268.701172" xlink:href="#DejaVuSans-105"/>
       <use x="296.484375" xlink:href="#DejaVuSans-97"/>
      </g>
     </g>
    </g>
    <g id="xtick_18">
     <g id="line2d_18">
      <g>
       <use style="stroke:#000000;stroke-width:0.8;" x="460.148762" xlink:href="#mcb6e20a0ac" y="902.449121"/>
      </g>
     </g>
     <g id="text_18">
      <!-- United Kingdom of Great Britain and Northern Ireland -->
      <g transform="translate(227.436298 1049.785811)rotate(-30)scale(0.1 -0.1)">
       <use xlink:href="#DejaVuSans-85"/>
       <use x="73.193359" xlink:href="#DejaVuSans-110"/>
       <use x="136.572266" xlink:href="#DejaVuSans-105"/>
       <use x="164.355469" xlink:href="#DejaVuSans-116"/>
       <use x="203.564453" xlink:href="#DejaVuSans-101"/>
       <use x="265.087891" xlink:href="#DejaVuSans-100"/>
       <use x="328.564453" xlink:href="#DejaVuSans-32"/>
       <use x="360.351562" xlink:href="#DejaVuSans-75"/>
       <use x="425.927734" xlink:href="#DejaVuSans-105"/>
       <use x="453.710938" xlink:href="#DejaVuSans-110"/>
       <use x="517.089844" xlink:href="#DejaVuSans-103"/>
       <use x="580.566406" xlink:href="#DejaVuSans-100"/>
       <use x="644.042969" xlink:href="#DejaVuSans-111"/>
       <use x="705.224609" xlink:href="#DejaVuSans-109"/>
       <use x="802.636719" xlink:href="#DejaVuSans-32"/>
       <use x="834.423828" xlink:href="#DejaVuSans-111"/>
       <use x="895.605469" xlink:href="#DejaVuSans-102"/>
       <use x="930.810547" xlink:href="#DejaVuSans-32"/>
       <use x="962.597656" xlink:href="#DejaVuSans-71"/>
       <use x="1040.087891" xlink:href="#DejaVuSans-114"/>
       <use x="1078.951172" xlink:href="#DejaVuSans-101"/>
       <use x="1140.474609" xlink:href="#DejaVuSans-97"/>
       <use x="1201.753906" xlink:href="#DejaVuSans-116"/>
       <use x="1240.962891" xlink:href="#DejaVuSans-32"/>
       <use x="1272.75" xlink:href="#DejaVuSans-66"/>
       <use x="1341.353516" xlink:href="#DejaVuSans-114"/>
       <use x="1382.466797" xlink:href="#DejaVuSans-105"/>
       <use x="1410.25" xlink:href="#DejaVuSans-116"/>
       <use x="1449.458984" xlink:href="#DejaVuSans-97"/>
       <use x="1510.738281" xlink:href="#DejaVuSans-105"/>
       <use x="1538.521484" xlink:href="#DejaVuSans-110"/>
       <use x="1601.900391" xlink:href="#DejaVuSans-32"/>
       <use x="1633.6875" xlink:href="#DejaVuSans-97"/>
       <use x="1694.966797" xlink:href="#DejaVuSans-110"/>
       <use x="1758.345703" xlink:href="#DejaVuSans-100"/>
       <use x="1821.822266" xlink:href="#DejaVuSans-32"/>
       <use x="1853.609375" xlink:href="#DejaVuSans-78"/>
       <use x="1928.414062" xlink:href="#DejaVuSans-111"/>
       <use x="1989.595703" xlink:href="#DejaVuSans-114"/>
       <use x="2030.708984" xlink:href="#DejaVuSans-116"/>
       <use x="2069.917969" xlink:href="#DejaVuSans-104"/>
       <use x="2133.296875" xlink:href="#DejaVuSans-101"/>
       <use x="2194.820312" xlink:href="#DejaVuSans-114"/>
       <use x="2234.183594" xlink:href="#DejaVuSans-110"/>
       <use x="2297.5625" xlink:href="#DejaVuSans-32"/>
       <use x="2329.349609" xlink:href="#DejaVuSans-73"/>
       <use x="2358.841797" xlink:href="#DejaVuSans-114"/>
       <use x="2397.705078" xlink:href="#DejaVuSans-101"/>
       <use x="2459.228516" xlink:href="#DejaVuSans-108"/>
       <use x="2487.011719" xlink:href="#DejaVuSans-97"/>
       <use x="2548.291016" xlink:href="#DejaVuSans-110"/>
       <use x="2611.669922" xlink:href="#DejaVuSans-100"/>
      </g>
     </g>
    </g>
    <g id="xtick_19">
     <g id="line2d_19">
      <g>
       <use style="stroke:#000000;stroke-width:0.8;" x="483.395656" xlink:href="#mcb6e20a0ac" y="902.449121"/>
      </g>
     </g>
     <g id="text_19">
      <!-- Sweden -->
      <defs>
       <path d="M 4.203125 54.6875 
L 13.1875 54.6875 
L 24.421875 12.015625 
L 35.59375 54.6875 
L 46.1875 54.6875 
L 57.421875 12.015625 
L 68.609375 54.6875 
L 77.59375 54.6875 
L 63.28125 0 
L 52.6875 0 
L 40.921875 44.828125 
L 29.109375 0 
L 18.5 0 
z
" id="DejaVuSans-119"/>
      </defs>
      <g transform="translate(448.131571 935.788936)rotate(-30)scale(0.1 -0.1)">
       <use xlink:href="#DejaVuSans-83"/>
       <use x="63.476562" xlink:href="#DejaVuSans-119"/>
       <use x="145.263672" xlink:href="#DejaVuSans-101"/>
       <use x="206.787109" xlink:href="#DejaVuSans-100"/>
       <use x="270.263672" xlink:href="#DejaVuSans-101"/>
       <use x="331.787109" xlink:href="#DejaVuSans-110"/>
      </g>
     </g>
    </g>
    <g id="xtick_20">
     <g id="line2d_20">
      <g>
       <use style="stroke:#000000;stroke-width:0.8;" x="506.64255" xlink:href="#mcb6e20a0ac" y="902.449121"/>
      </g>
     </g>
     <g id="text_20">
      <!-- Mexico -->
      <defs>
       <path d="M 9.8125 72.90625 
L 24.515625 72.90625 
L 43.109375 23.296875 
L 61.8125 72.90625 
L 76.515625 72.90625 
L 76.515625 0 
L 66.890625 0 
L 66.890625 64.015625 
L 48.09375 14.015625 
L 38.1875 14.015625 
L 19.390625 64.015625 
L 19.390625 0 
L 9.8125 0 
z
" id="DejaVuSans-77"/>
       <path d="M 54.890625 54.6875 
L 35.109375 28.078125 
L 55.90625 0 
L 45.3125 0 
L 29.390625 21.484375 
L 13.484375 0 
L 2.875 0 
L 24.125 28.609375 
L 4.6875 54.6875 
L 15.28125 54.6875 
L 29.78125 35.203125 
L 44.28125 54.6875 
z
" id="DejaVuSans-120"/>
      </defs>
      <g transform="translate(475.360828 933.489717)rotate(-30)scale(0.1 -0.1)">
       <use xlink:href="#DejaVuSans-77"/>
       <use x="86.279297" xlink:href="#DejaVuSans-101"/>
       <use x="146.052734" xlink:href="#DejaVuSans-120"/>
       <use x="205.232422" xlink:href="#DejaVuSans-105"/>
       <use x="233.015625" xlink:href="#DejaVuSans-99"/>
       <use x="287.996094" xlink:href="#DejaVuSans-111"/>
      </g>
     </g>
    </g>
    <g id="xtick_21">
     <g id="line2d_21">
      <g>
       <use style="stroke:#000000;stroke-width:0.8;" x="529.889443" xlink:href="#mcb6e20a0ac" y="902.449121"/>
      </g>
     </g>
     <g id="text_21">
      <!-- Canada -->
      <defs>
       <path d="M 64.40625 67.28125 
L 64.40625 56.890625 
Q 59.421875 61.53125 53.78125 63.8125 
Q 48.140625 66.109375 41.796875 66.109375 
Q 29.296875 66.109375 22.65625 58.46875 
Q 16.015625 50.828125 16.015625 36.375 
Q 16.015625 21.96875 22.65625 14.328125 
Q 29.296875 6.6875 41.796875 6.6875 
Q 48.140625 6.6875 53.78125 8.984375 
Q 59.421875 11.28125 64.40625 15.921875 
L 64.40625 5.609375 
Q 59.234375 2.09375 53.4375 0.328125 
Q 47.65625 -1.421875 41.21875 -1.421875 
Q 24.65625 -1.421875 15.125 8.703125 
Q 5.609375 18.84375 5.609375 36.375 
Q 5.609375 53.953125 15.125 64.078125 
Q 24.65625 74.21875 41.21875 74.21875 
Q 47.75 74.21875 53.53125 72.484375 
Q 59.328125 70.75 64.40625 67.28125 
z
" id="DejaVuSans-67"/>
      </defs>
      <g transform="translate(495.894627 935.056123)rotate(-30)scale(0.1 -0.1)">
       <use xlink:href="#DejaVuSans-67"/>
       <use x="69.824219" xlink:href="#DejaVuSans-97"/>
       <use x="131.103516" xlink:href="#DejaVuSans-110"/>
       <use x="194.482422" xlink:href="#DejaVuSans-97"/>
       <use x="255.761719" xlink:href="#DejaVuSans-100"/>
       <use x="319.238281" xlink:href="#DejaVuSans-97"/>
      </g>
     </g>
    </g>
    <g id="xtick_22">
     <g id="line2d_22">
      <g>
       <use style="stroke:#000000;stroke-width:0.8;" x="553.136337" xlink:href="#mcb6e20a0ac" y="902.449121"/>
      </g>
     </g>
     <g id="text_22">
      <!-- Portugal -->
      <g transform="translate(516.234922 936.734248)rotate(-30)scale(0.1 -0.1)">
       <use xlink:href="#DejaVuSans-80"/>
       <use x="56.677734" xlink:href="#DejaVuSans-111"/>
       <use x="117.859375" xlink:href="#DejaVuSans-114"/>
       <use x="158.972656" xlink:href="#DejaVuSans-116"/>
       <use x="198.181641" xlink:href="#DejaVuSans-117"/>
       <use x="261.560547" xlink:href="#DejaVuSans-103"/>
       <use x="325.037109" xlink:href="#DejaVuSans-97"/>
       <use x="386.316406" xlink:href="#DejaVuSans-108"/>
      </g>
     </g>
    </g>
    <g id="xtick_23">
     <g id="line2d_23">
      <g>
       <use style="stroke:#000000;stroke-width:0.8;" x="576.38323" xlink:href="#mcb6e20a0ac" y="902.449121"/>
      </g>
     </g>
     <g id="text_23">
      <!-- Poland -->
      <g transform="translate(546.437082 932.718623)rotate(-30)scale(0.1 -0.1)">
       <use xlink:href="#DejaVuSans-80"/>
       <use x="56.677734" xlink:href="#DejaVuSans-111"/>
       <use x="117.859375" xlink:href="#DejaVuSans-108"/>
       <use x="145.642578" xlink:href="#DejaVuSans-97"/>
       <use x="206.921875" xlink:href="#DejaVuSans-110"/>
       <use x="270.300781" xlink:href="#DejaVuSans-100"/>
      </g>
     </g>
    </g>
    <g id="xtick_24">
     <g id="line2d_24">
      <g>
       <use style="stroke:#000000;stroke-width:0.8;" x="599.630124" xlink:href="#mcb6e20a0ac" y="902.449121"/>
      </g>
     </g>
     <g id="text_24">
      <!-- Indonesia -->
      <g transform="translate(556.70848 940.21003)rotate(-30)scale(0.1 -0.1)">
       <use xlink:href="#DejaVuSans-73"/>
       <use x="29.492188" xlink:href="#DejaVuSans-110"/>
       <use x="92.871094" xlink:href="#DejaVuSans-100"/>
       <use x="156.347656" xlink:href="#DejaVuSans-111"/>
       <use x="217.529297" xlink:href="#DejaVuSans-110"/>
       <use x="280.908203" xlink:href="#DejaVuSans-101"/>
       <use x="342.431641" xlink:href="#DejaVuSans-115"/>
       <use x="394.53125" xlink:href="#DejaVuSans-105"/>
       <use x="422.314453" xlink:href="#DejaVuSans-97"/>
      </g>
     </g>
    </g>
    <g id="xtick_25">
     <g id="line2d_25">
      <g>
       <use style="stroke:#000000;stroke-width:0.8;" x="622.877017" xlink:href="#mcb6e20a0ac" y="902.449121"/>
      </g>
     </g>
     <g id="text_25">
      <!-- Italy -->
      <g transform="translate(603.048482 926.877217)rotate(-30)scale(0.1 -0.1)">
       <use xlink:href="#DejaVuSans-73"/>
       <use x="29.492188" xlink:href="#DejaVuSans-116"/>
       <use x="68.701172" xlink:href="#DejaVuSans-97"/>
       <use x="129.980469" xlink:href="#DejaVuSans-108"/>
       <use x="157.763672" xlink:href="#DejaVuSans-121"/>
      </g>
     </g>
    </g>
    <g id="xtick_26">
     <g id="line2d_26">
      <g>
       <use style="stroke:#000000;stroke-width:0.8;" x="646.123911" xlink:href="#mcb6e20a0ac" y="902.449121"/>
      </g>
     </g>
     <g id="text_26">
      <!-- Czech Republic -->
      <defs>
       <path d="M 48.6875 27.296875 
Q 48.6875 37.203125 44.609375 42.84375 
Q 40.53125 48.484375 33.40625 48.484375 
Q 26.265625 48.484375 22.1875 42.84375 
Q 18.109375 37.203125 18.109375 27.296875 
Q 18.109375 17.390625 22.1875 11.75 
Q 26.265625 6.109375 33.40625 6.109375 
Q 40.53125 6.109375 44.609375 11.75 
Q 48.6875 17.390625 48.6875 27.296875 
z
M 18.109375 46.390625 
Q 20.953125 51.265625 25.265625 53.625 
Q 29.59375 56 35.59375 56 
Q 45.5625 56 51.78125 48.09375 
Q 58.015625 40.1875 58.015625 27.296875 
Q 58.015625 14.40625 51.78125 6.484375 
Q 45.5625 -1.421875 35.59375 -1.421875 
Q 29.59375 -1.421875 25.265625 0.953125 
Q 20.953125 3.328125 18.109375 8.203125 
L 18.109375 0 
L 9.078125 0 
L 9.078125 75.984375 
L 18.109375 75.984375 
z
" id="DejaVuSans-98"/>
      </defs>
      <g transform="translate(579.145705 954.099092)rotate(-30)scale(0.1 -0.1)">
       <use xlink:href="#DejaVuSans-67"/>
       <use x="69.824219" xlink:href="#DejaVuSans-122"/>
       <use x="122.314453" xlink:href="#DejaVuSans-101"/>
       <use x="183.837891" xlink:href="#DejaVuSans-99"/>
       <use x="238.818359" xlink:href="#DejaVuSans-104"/>
       <use x="302.197266" xlink:href="#DejaVuSans-32"/>
       <use x="333.984375" xlink:href="#DejaVuSans-82"/>
       <use x="398.966797" xlink:href="#DejaVuSans-101"/>
       <use x="460.490234" xlink:href="#DejaVuSans-112"/>
       <use x="523.966797" xlink:href="#DejaVuSans-117"/>
       <use x="587.345703" xlink:href="#DejaVuSans-98"/>
       <use x="650.822266" xlink:href="#DejaVuSans-108"/>
       <use x="678.605469" xlink:href="#DejaVuSans-105"/>
       <use x="706.388672" xlink:href="#DejaVuSans-99"/>
      </g>
     </g>
    </g>
    <g id="xtick_27">
     <g id="line2d_27">
      <g>
       <use style="stroke:#000000;stroke-width:0.8;" x="669.370805" xlink:href="#mcb6e20a0ac" y="902.449121"/>
      </g>
     </g>
     <g id="text_27">
      <!-- Spain -->
      <g transform="translate(644.13367 929.999873)rotate(-30)scale(0.1 -0.1)">
       <use xlink:href="#DejaVuSans-83"/>
       <use x="63.476562" xlink:href="#DejaVuSans-112"/>
       <use x="126.953125" xlink:href="#DejaVuSans-97"/>
       <use x="188.232422" xlink:href="#DejaVuSans-105"/>
       <use x="216.015625" xlink:href="#DejaVuSans-110"/>
      </g>
     </g>
    </g>
    <g id="xtick_28">
     <g id="line2d_28">
      <g>
       <use style="stroke:#000000;stroke-width:0.8;" x="692.617698" xlink:href="#mcb6e20a0ac" y="902.449121"/>
      </g>
     </g>
     <g id="text_28">
      <!-- Chile -->
      <g transform="translate(669.901509 928.544405)rotate(-30)scale(0.1 -0.1)">
       <use xlink:href="#DejaVuSans-67"/>
       <use x="69.824219" xlink:href="#DejaVuSans-104"/>
       <use x="133.203125" xlink:href="#DejaVuSans-105"/>
       <use x="160.986328" xlink:href="#DejaVuSans-108"/>
       <use x="188.769531" xlink:href="#DejaVuSans-101"/>
      </g>
     </g>
    </g>
    <g id="xtick_29">
     <g id="line2d_29">
      <g>
       <use style="stroke:#000000;stroke-width:0.8;" x="715.864592" xlink:href="#mcb6e20a0ac" y="902.449121"/>
      </g>
     </g>
     <g id="text_29">
      <!-- Hong Kong (S.A.R.) -->
      <defs>
       <path d="M 9.8125 72.90625 
L 19.671875 72.90625 
L 19.671875 43.015625 
L 55.515625 43.015625 
L 55.515625 72.90625 
L 65.375 72.90625 
L 65.375 0 
L 55.515625 0 
L 55.515625 34.71875 
L 19.671875 34.71875 
L 19.671875 0 
L 9.8125 0 
z
" id="DejaVuSans-72"/>
       <path d="M 31 75.875 
Q 24.46875 64.65625 21.28125 53.65625 
Q 18.109375 42.671875 18.109375 31.390625 
Q 18.109375 20.125 21.3125 9.0625 
Q 24.515625 -2 31 -13.1875 
L 23.1875 -13.1875 
Q 15.875 -1.703125 12.234375 9.375 
Q 8.59375 20.453125 8.59375 31.390625 
Q 8.59375 42.28125 12.203125 53.3125 
Q 15.828125 64.359375 23.1875 75.875 
z
" id="DejaVuSans-40"/>
       <path d="M 10.6875 12.40625 
L 21 12.40625 
L 21 0 
L 10.6875 0 
z
" id="DejaVuSans-46"/>
       <path d="M 8.015625 75.875 
L 15.828125 75.875 
Q 23.140625 64.359375 26.78125 53.3125 
Q 30.421875 42.28125 30.421875 31.390625 
Q 30.421875 20.453125 26.78125 9.375 
Q 23.140625 -1.703125 15.828125 -13.1875 
L 8.015625 -13.1875 
Q 14.5 -2 17.703125 9.0625 
Q 20.90625 20.125 20.90625 31.390625 
Q 20.90625 42.671875 17.703125 53.65625 
Q 14.5 64.65625 8.015625 75.875 
z
" id="DejaVuSans-41"/>
      </defs>
      <g transform="translate(633.001585 963.270186)rotate(-30)scale(0.1 -0.1)">
       <use xlink:href="#DejaVuSans-72"/>
       <use x="75.195312" xlink:href="#DejaVuSans-111"/>
       <use x="136.376953" xlink:href="#DejaVuSans-110"/>
       <use x="199.755859" xlink:href="#DejaVuSans-103"/>
       <use x="263.232422" xlink:href="#DejaVuSans-32"/>
       <use x="295.019531" xlink:href="#DejaVuSans-75"/>
       <use x="355.595703" xlink:href="#DejaVuSans-111"/>
       <use x="416.777344" xlink:href="#DejaVuSans-110"/>
       <use x="480.15625" xlink:href="#DejaVuSans-103"/>
       <use x="543.632812" xlink:href="#DejaVuSans-32"/>
       <use x="575.419922" xlink:href="#DejaVuSans-40"/>
       <use x="614.433594" xlink:href="#DejaVuSans-83"/>
       <use x="677.910156" xlink:href="#DejaVuSans-46"/>
       <use x="709.697266" xlink:href="#DejaVuSans-65"/>
       <use x="776.355469" xlink:href="#DejaVuSans-46"/>
       <use x="808.142578" xlink:href="#DejaVuSans-82"/>
       <use x="874" xlink:href="#DejaVuSans-46"/>
       <use x="905.787109" xlink:href="#DejaVuSans-41"/>
      </g>
     </g>
    </g>
    <g id="xtick_30">
     <g id="line2d_30">
      <g>
       <use style="stroke:#000000;stroke-width:0.8;" x="739.111485" xlink:href="#mcb6e20a0ac" y="902.449121"/>
      </g>
     </g>
     <g id="text_30">
      <!-- South Africa -->
      <g transform="translate(685.456539 946.406905)rotate(-30)scale(0.1 -0.1)">
       <use xlink:href="#DejaVuSans-83"/>
       <use x="63.476562" xlink:href="#DejaVuSans-111"/>
       <use x="124.658203" xlink:href="#DejaVuSans-117"/>
       <use x="188.037109" xlink:href="#DejaVuSans-116"/>
       <use x="227.246094" xlink:href="#DejaVuSans-104"/>
       <use x="290.625" xlink:href="#DejaVuSans-32"/>
       <use x="322.412109" xlink:href="#DejaVuSans-65"/>
       <use x="387.195312" xlink:href="#DejaVuSans-102"/>
       <use x="422.400391" xlink:href="#DejaVuSans-114"/>
       <use x="463.513672" xlink:href="#DejaVuSans-105"/>
       <use x="491.296875" xlink:href="#DejaVuSans-99"/>
       <use x="546.277344" xlink:href="#DejaVuSans-97"/>
      </g>
     </g>
    </g>
    <g id="xtick_31">
     <g id="line2d_31">
      <g>
       <use style="stroke:#000000;stroke-width:0.8;" x="762.358379" xlink:href="#mcb6e20a0ac" y="902.449121"/>
      </g>
     </g>
     <g id="text_31">
      <!-- Argentina -->
      <g transform="translate(719.074087 940.419405)rotate(-30)scale(0.1 -0.1)">
       <use xlink:href="#DejaVuSans-65"/>
       <use x="68.408203" xlink:href="#DejaVuSans-114"/>
       <use x="107.771484" xlink:href="#DejaVuSans-103"/>
       <use x="171.248047" xlink:href="#DejaVuSans-101"/>
       <use x="232.771484" xlink:href="#DejaVuSans-110"/>
       <use x="296.150391" xlink:href="#DejaVuSans-116"/>
       <use x="335.359375" xlink:href="#DejaVuSans-105"/>
       <use x="363.142578" xlink:href="#DejaVuSans-110"/>
       <use x="426.521484" xlink:href="#DejaVuSans-97"/>
      </g>
     </g>
    </g>
    <g id="xtick_32">
     <g id="line2d_32">
      <g>
       <use style="stroke:#000000;stroke-width:0.8;" x="785.605272" xlink:href="#mcb6e20a0ac" y="902.449121"/>
      </g>
     </g>
     <g id="text_32">
      <!-- Turkey -->
      <defs>
       <path d="M -0.296875 72.90625 
L 61.375 72.90625 
L 61.375 64.59375 
L 35.5 64.59375 
L 35.5 0 
L 25.59375 0 
L 25.59375 64.59375 
L -0.296875 64.59375 
z
" id="DejaVuSans-84"/>
      </defs>
      <g transform="translate(756.381715 932.301436)rotate(-30)scale(0.1 -0.1)">
       <use xlink:href="#DejaVuSans-84"/>
       <use x="45.958984" xlink:href="#DejaVuSans-117"/>
       <use x="109.337891" xlink:href="#DejaVuSans-114"/>
       <use x="150.451172" xlink:href="#DejaVuSans-107"/>
       <use x="204.736328" xlink:href="#DejaVuSans-101"/>
       <use x="266.259766" xlink:href="#DejaVuSans-121"/>
      </g>
     </g>
    </g>
    <g id="xtick_33">
     <g id="line2d_33">
      <g>
       <use style="stroke:#000000;stroke-width:0.8;" x="808.852166" xlink:href="#mcb6e20a0ac" y="902.449121"/>
      </g>
     </g>
     <g id="text_33">
      <!-- Israel -->
      <g transform="translate(784.144119 929.694405)rotate(-30)scale(0.1 -0.1)">
       <use xlink:href="#DejaVuSans-73"/>
       <use x="29.492188" xlink:href="#DejaVuSans-115"/>
       <use x="81.591797" xlink:href="#DejaVuSans-114"/>
       <use x="122.705078" xlink:href="#DejaVuSans-97"/>
       <use x="183.984375" xlink:href="#DejaVuSans-101"/>
       <use x="245.507812" xlink:href="#DejaVuSans-108"/>
      </g>
     </g>
    </g>
    <g id="xtick_34">
     <g id="line2d_34">
      <g>
       <use style="stroke:#000000;stroke-width:0.8;" x="832.09906" xlink:href="#mcb6e20a0ac" y="902.449121"/>
      </g>
     </g>
     <g id="text_34">
      <!-- Taiwan -->
      <g transform="translate(801.607586 933.033467)rotate(-30)scale(0.1 -0.1)">
       <use xlink:href="#DejaVuSans-84"/>
       <use x="44.583984" xlink:href="#DejaVuSans-97"/>
       <use x="105.863281" xlink:href="#DejaVuSans-105"/>
       <use x="133.646484" xlink:href="#DejaVuSans-119"/>
       <use x="215.433594" xlink:href="#DejaVuSans-97"/>
       <use x="276.712891" xlink:href="#DejaVuSans-110"/>
      </g>
     </g>
    </g>
    <g id="xtick_35">
     <g id="line2d_35">
      <g>
       <use style="stroke:#000000;stroke-width:0.8;" x="855.345953" xlink:href="#mcb6e20a0ac" y="902.449121"/>
      </g>
     </g>
     <g id="text_35">
      <!-- Egypt -->
      <defs>
       <path d="M 9.8125 72.90625 
L 55.90625 72.90625 
L 55.90625 64.59375 
L 19.671875 64.59375 
L 19.671875 43.015625 
L 54.390625 43.015625 
L 54.390625 34.71875 
L 19.671875 34.71875 
L 19.671875 8.296875 
L 56.78125 8.296875 
L 56.78125 0 
L 9.8125 0 
z
" id="DejaVuSans-69"/>
      </defs>
      <g transform="translate(829.317217 930.456905)rotate(-30)scale(0.1 -0.1)">
       <use xlink:href="#DejaVuSans-69"/>
       <use x="63.183594" xlink:href="#DejaVuSans-103"/>
       <use x="126.660156" xlink:href="#DejaVuSans-121"/>
       <use x="185.839844" xlink:href="#DejaVuSans-112"/>
       <use x="249.316406" xlink:href="#DejaVuSans-116"/>
      </g>
     </g>
    </g>
    <g id="xtick_36">
     <g id="line2d_36">
      <g>
       <use style="stroke:#000000;stroke-width:0.8;" x="878.592847" xlink:href="#mcb6e20a0ac" y="902.449121"/>
      </g>
     </g>
     <g id="text_36">
      <!-- Morocco -->
      <g transform="translate(841.294955 936.963155)rotate(-30)scale(0.1 -0.1)">
       <use xlink:href="#DejaVuSans-77"/>
       <use x="86.279297" xlink:href="#DejaVuSans-111"/>
       <use x="147.460938" xlink:href="#DejaVuSans-114"/>
       <use x="186.324219" xlink:href="#DejaVuSans-111"/>
       <use x="247.505859" xlink:href="#DejaVuSans-99"/>
       <use x="302.486328" xlink:href="#DejaVuSans-99"/>
       <use x="357.466797" xlink:href="#DejaVuSans-111"/>
      </g>
     </g>
    </g>
    <g id="xtick_37">
     <g id="line2d_37">
      <g>
       <use style="stroke:#000000;stroke-width:0.8;" x="901.83974" xlink:href="#mcb6e20a0ac" y="902.449121"/>
      </g>
     </g>
     <g id="text_37">
      <!-- Hungary -->
      <g transform="translate(863.819259 937.380342)rotate(-30)scale(0.1 -0.1)">
       <use xlink:href="#DejaVuSans-72"/>
       <use x="75.195312" xlink:href="#DejaVuSans-117"/>
       <use x="138.574219" xlink:href="#DejaVuSans-110"/>
       <use x="201.953125" xlink:href="#DejaVuSans-103"/>
       <use x="265.429688" xlink:href="#DejaVuSans-97"/>
       <use x="326.708984" xlink:href="#DejaVuSans-114"/>
       <use x="367.822266" xlink:href="#DejaVuSans-121"/>
      </g>
     </g>
    </g>
    <g id="xtick_38">
     <g id="line2d_38">
      <g>
       <use style="stroke:#000000;stroke-width:0.8;" x="925.086634" xlink:href="#mcb6e20a0ac" y="902.449121"/>
      </g>
     </g>
     <g id="text_38">
      <!-- Colombia -->
      <g transform="translate(883.349009 939.526436)rotate(-30)scale(0.1 -0.1)">
       <use xlink:href="#DejaVuSans-67"/>
       <use x="69.824219" xlink:href="#DejaVuSans-111"/>
       <use x="131.005859" xlink:href="#DejaVuSans-108"/>
       <use x="158.789062" xlink:href="#DejaVuSans-111"/>
       <use x="219.970703" xlink:href="#DejaVuSans-109"/>
       <use x="317.382812" xlink:href="#DejaVuSans-98"/>
       <use x="380.859375" xlink:href="#DejaVuSans-105"/>
       <use x="408.642578" xlink:href="#DejaVuSans-97"/>
      </g>
     </g>
    </g>
    <g id="xtick_39">
     <g id="line2d_39">
      <g>
       <use style="stroke:#000000;stroke-width:0.8;" x="948.333527" xlink:href="#mcb6e20a0ac" y="902.449121"/>
      </g>
     </g>
     <g id="text_39">
      <!-- Norway -->
      <g transform="translate(914.440198 934.99753)rotate(-30)scale(0.1 -0.1)">
       <use xlink:href="#DejaVuSans-78"/>
       <use x="74.804688" xlink:href="#DejaVuSans-111"/>
       <use x="135.986328" xlink:href="#DejaVuSans-114"/>
       <use x="177.099609" xlink:href="#DejaVuSans-119"/>
       <use x="258.886719" xlink:href="#DejaVuSans-97"/>
       <use x="320.166016" xlink:href="#DejaVuSans-121"/>
      </g>
     </g>
    </g>
    <g id="xtick_40">
     <g id="line2d_40">
      <g>
       <use style="stroke:#000000;stroke-width:0.8;" x="971.580421" xlink:href="#mcb6e20a0ac" y="902.449121"/>
      </g>
     </g>
     <g id="text_40">
      <!-- Thailand -->
      <g transform="translate(933.350199 937.501436)rotate(-30)scale(0.1 -0.1)">
       <use xlink:href="#DejaVuSans-84"/>
       <use x="61.083984" xlink:href="#DejaVuSans-104"/>
       <use x="124.462891" xlink:href="#DejaVuSans-97"/>
       <use x="185.742188" xlink:href="#DejaVuSans-105"/>
       <use x="213.525391" xlink:href="#DejaVuSans-108"/>
       <use x="241.308594" xlink:href="#DejaVuSans-97"/>
       <use x="302.587891" xlink:href="#DejaVuSans-110"/>
       <use x="365.966797" xlink:href="#DejaVuSans-100"/>
      </g>
     </g>
    </g>
    <g id="xtick_41">
     <g id="line2d_41">
      <g>
       <use style="stroke:#000000;stroke-width:0.8;" x="994.827315" xlink:href="#mcb6e20a0ac" y="902.449121"/>
      </g>
     </g>
     <g id="text_41">
      <!-- Switzerland -->
      <g transform="translate(943.27248 945.194405)rotate(-30)scale(0.1 -0.1)">
       <use xlink:href="#DejaVuSans-83"/>
       <use x="63.476562" xlink:href="#DejaVuSans-119"/>
       <use x="145.263672" xlink:href="#DejaVuSans-105"/>
       <use x="173.046875" xlink:href="#DejaVuSans-116"/>
       <use x="212.255859" xlink:href="#DejaVuSans-122"/>
       <use x="264.746094" xlink:href="#DejaVuSans-101"/>
       <use x="326.269531" xlink:href="#DejaVuSans-114"/>
       <use x="367.382812" xlink:href="#DejaVuSans-108"/>
       <use x="395.166016" xlink:href="#DejaVuSans-97"/>
       <use x="456.445312" xlink:href="#DejaVuSans-110"/>
       <use x="519.824219" xlink:href="#DejaVuSans-100"/>
      </g>
     </g>
    </g>
    <g id="xtick_42">
     <g id="line2d_42">
      <g>
       <use style="stroke:#000000;stroke-width:0.8;" x="1018.074208" xlink:href="#mcb6e20a0ac" y="902.449121"/>
      </g>
     </g>
     <g id="text_42">
      <!-- Viet Nam -->
      <defs>
       <path d="M 28.609375 0 
L 0.78125 72.90625 
L 11.078125 72.90625 
L 34.1875 11.53125 
L 57.328125 72.90625 
L 67.578125 72.90625 
L 39.796875 0 
z
" id="DejaVuSans-86"/>
      </defs>
      <g transform="translate(977.201255 939.027217)rotate(-30)scale(0.1 -0.1)">
       <use xlink:href="#DejaVuSans-86"/>
       <use x="66.158203" xlink:href="#DejaVuSans-105"/>
       <use x="93.941406" xlink:href="#DejaVuSans-101"/>
       <use x="155.464844" xlink:href="#DejaVuSans-116"/>
       <use x="194.673828" xlink:href="#DejaVuSans-32"/>
       <use x="226.460938" xlink:href="#DejaVuSans-78"/>
       <use x="301.265625" xlink:href="#DejaVuSans-97"/>
       <use x="362.544922" xlink:href="#DejaVuSans-109"/>
      </g>
     </g>
    </g>
    <g id="xtick_43">
     <g id="line2d_43">
      <g>
       <use style="stroke:#000000;stroke-width:0.8;" x="1041.321102" xlink:href="#mcb6e20a0ac" y="902.449121"/>
      </g>
     </g>
     <g id="text_43">
      <!-- Singapore -->
      <g transform="translate(996.592983 941.252998)rotate(-30)scale(0.1 -0.1)">
       <use xlink:href="#DejaVuSans-83"/>
       <use x="63.476562" xlink:href="#DejaVuSans-105"/>
       <use x="91.259766" xlink:href="#DejaVuSans-110"/>
       <use x="154.638672" xlink:href="#DejaVuSans-103"/>
       <use x="218.115234" xlink:href="#DejaVuSans-97"/>
       <use x="279.394531" xlink:href="#DejaVuSans-112"/>
       <use x="342.871094" xlink:href="#DejaVuSans-111"/>
       <use x="404.052734" xlink:href="#DejaVuSans-114"/>
       <use x="442.916016" xlink:href="#DejaVuSans-101"/>
      </g>
     </g>
    </g>
    <g id="xtick_44">
     <g id="line2d_44">
      <g>
       <use style="stroke:#000000;stroke-width:0.8;" x="1064.567995" xlink:href="#mcb6e20a0ac" y="902.449121"/>
      </g>
     </g>
     <g id="text_44">
      <!-- Bangladesh -->
      <g transform="translate(1012.753353 945.344405)rotate(-30)scale(0.1 -0.1)">
       <use xlink:href="#DejaVuSans-66"/>
       <use x="68.603516" xlink:href="#DejaVuSans-97"/>
       <use x="129.882812" xlink:href="#DejaVuSans-110"/>
       <use x="193.261719" xlink:href="#DejaVuSans-103"/>
       <use x="256.738281" xlink:href="#DejaVuSans-108"/>
       <use x="284.521484" xlink:href="#DejaVuSans-97"/>
       <use x="345.800781" xlink:href="#DejaVuSans-100"/>
       <use x="409.277344" xlink:href="#DejaVuSans-101"/>
       <use x="470.800781" xlink:href="#DejaVuSans-115"/>
       <use x="522.900391" xlink:href="#DejaVuSans-104"/>
      </g>
     </g>
    </g>
    <g id="xtick_45">
     <g id="line2d_45">
      <g>
       <use style="stroke:#000000;stroke-width:0.8;" x="1087.814889" xlink:href="#mcb6e20a0ac" y="902.449121"/>
      </g>
     </g>
     <g id="text_45">
      <!-- Iran, Islamic Republic of... -->
      <defs>
       <path d="M 11.71875 12.40625 
L 22.015625 12.40625 
L 22.015625 4 
L 14.015625 -11.625 
L 7.71875 -11.625 
L 11.71875 4 
z
" id="DejaVuSans-44"/>
      </defs>
      <g transform="translate(975.481309 980.28503)rotate(-30)scale(0.1 -0.1)">
       <use xlink:href="#DejaVuSans-73"/>
       <use x="29.492188" xlink:href="#DejaVuSans-114"/>
       <use x="70.605469" xlink:href="#DejaVuSans-97"/>
       <use x="131.884766" xlink:href="#DejaVuSans-110"/>
       <use x="195.263672" xlink:href="#DejaVuSans-44"/>
       <use x="227.050781" xlink:href="#DejaVuSans-32"/>
       <use x="258.837891" xlink:href="#DejaVuSans-73"/>
       <use x="288.330078" xlink:href="#DejaVuSans-115"/>
       <use x="340.429688" xlink:href="#DejaVuSans-108"/>
       <use x="368.212891" xlink:href="#DejaVuSans-97"/>
       <use x="429.492188" xlink:href="#DejaVuSans-109"/>
       <use x="526.904297" xlink:href="#DejaVuSans-105"/>
       <use x="554.6875" xlink:href="#DejaVuSans-99"/>
       <use x="609.667969" xlink:href="#DejaVuSans-32"/>
       <use x="641.455078" xlink:href="#DejaVuSans-82"/>
       <use x="706.4375" xlink:href="#DejaVuSans-101"/>
       <use x="767.960938" xlink:href="#DejaVuSans-112"/>
       <use x="831.4375" xlink:href="#DejaVuSans-117"/>
       <use x="894.816406" xlink:href="#DejaVuSans-98"/>
       <use x="958.292969" xlink:href="#DejaVuSans-108"/>
       <use x="986.076172" xlink:href="#DejaVuSans-105"/>
       <use x="1013.859375" xlink:href="#DejaVuSans-99"/>
       <use x="1068.839844" xlink:href="#DejaVuSans-32"/>
       <use x="1100.626953" xlink:href="#DejaVuSans-111"/>
       <use x="1161.808594" xlink:href="#DejaVuSans-102"/>
       <use x="1189.763672" xlink:href="#DejaVuSans-46"/>
       <use x="1221.550781" xlink:href="#DejaVuSans-46"/>
       <use x="1253.337891" xlink:href="#DejaVuSans-46"/>
      </g>
     </g>
    </g>
    <g id="xtick_46">
     <g id="line2d_46">
      <g>
       <use style="stroke:#000000;stroke-width:0.8;" x="1111.061782" xlink:href="#mcb6e20a0ac" y="902.449121"/>
      </g>
     </g>
     <g id="text_46">
      <!-- Peru -->
      <g transform="translate(1090.736636 927.163936)rotate(-30)scale(0.1 -0.1)">
       <use xlink:href="#DejaVuSans-80"/>
       <use x="56.677734" xlink:href="#DejaVuSans-101"/>
       <use x="118.201172" xlink:href="#DejaVuSans-114"/>
       <use x="159.314453" xlink:href="#DejaVuSans-117"/>
      </g>
     </g>
    </g>
    <g id="xtick_47">
     <g id="line2d_47">
      <g>
       <use style="stroke:#000000;stroke-width:0.8;" x="1134.308676" xlink:href="#mcb6e20a0ac" y="902.449121"/>
      </g>
     </g>
     <g id="text_47">
      <!-- Kenya -->
      <g transform="translate(1106.772514 931.327217)rotate(-30)scale(0.1 -0.1)">
       <use xlink:href="#DejaVuSans-75"/>
       <use x="60.576172" xlink:href="#DejaVuSans-101"/>
       <use x="122.099609" xlink:href="#DejaVuSans-110"/>
       <use x="185.478516" xlink:href="#DejaVuSans-121"/>
       <use x="244.658203" xlink:href="#DejaVuSans-97"/>
      </g>
     </g>
    </g>
    <g id="xtick_48">
     <g id="line2d_48">
      <g>
       <use style="stroke:#000000;stroke-width:0.8;" x="1157.55557" xlink:href="#mcb6e20a0ac" y="902.449121"/>
      </g>
     </g>
     <g id="text_48">
      <!-- Romania -->
      <g transform="translate(1118.644706 937.894405)rotate(-30)scale(0.1 -0.1)">
       <use xlink:href="#DejaVuSans-82"/>
       <use x="64.982422" xlink:href="#DejaVuSans-111"/>
       <use x="126.164062" xlink:href="#DejaVuSans-109"/>
       <use x="223.576172" xlink:href="#DejaVuSans-97"/>
       <use x="284.855469" xlink:href="#DejaVuSans-110"/>
       <use x="348.234375" xlink:href="#DejaVuSans-105"/>
       <use x="376.017578" xlink:href="#DejaVuSans-97"/>
      </g>
     </g>
    </g>
    <g id="xtick_49">
     <g id="line2d_49">
      <g>
       <use style="stroke:#000000;stroke-width:0.8;" x="1180.802463" xlink:href="#mcb6e20a0ac" y="902.449121"/>
      </g>
     </g>
     <g id="text_49">
      <!-- China -->
      <g transform="translate(1155.025416 930.311592)rotate(-30)scale(0.1 -0.1)">
       <use xlink:href="#DejaVuSans-67"/>
       <use x="69.824219" xlink:href="#DejaVuSans-104"/>
       <use x="133.203125" xlink:href="#DejaVuSans-105"/>
       <use x="160.986328" xlink:href="#DejaVuSans-110"/>
       <use x="224.365234" xlink:href="#DejaVuSans-97"/>
      </g>
     </g>
    </g>
    <g id="xtick_50">
     <g id="line2d_50">
      <g>
       <use style="stroke:#000000;stroke-width:0.8;" x="1204.049357" xlink:href="#mcb6e20a0ac" y="902.449121"/>
      </g>
     </g>
     <g id="text_50">
      <!-- Belgium -->
      <g transform="translate(1167.505178 936.527998)rotate(-30)scale(0.1 -0.1)">
       <use xlink:href="#DejaVuSans-66"/>
       <use x="68.603516" xlink:href="#DejaVuSans-101"/>
       <use x="130.126953" xlink:href="#DejaVuSans-108"/>
       <use x="157.910156" xlink:href="#DejaVuSans-103"/>
       <use x="221.386719" xlink:href="#DejaVuSans-105"/>
       <use x="249.169922" xlink:href="#DejaVuSans-117"/>
       <use x="312.548828" xlink:href="#DejaVuSans-109"/>
      </g>
     </g>
    </g>
    <g id="xtick_51">
     <g id="line2d_51">
      <g>
       <use style="stroke:#000000;stroke-width:0.8;" x="1227.29625" xlink:href="#mcb6e20a0ac" y="902.449121"/>
      </g>
     </g>
     <g id="text_51">
      <!-- Austria -->
      <g transform="translate(1195.664059 933.692061)rotate(-30)scale(0.1 -0.1)">
       <use xlink:href="#DejaVuSans-65"/>
       <use x="68.408203" xlink:href="#DejaVuSans-117"/>
       <use x="131.787109" xlink:href="#DejaVuSans-115"/>
       <use x="183.886719" xlink:href="#DejaVuSans-116"/>
       <use x="223.095703" xlink:href="#DejaVuSans-114"/>
       <use x="264.208984" xlink:href="#DejaVuSans-105"/>
       <use x="291.992188" xlink:href="#DejaVuSans-97"/>
      </g>
     </g>
    </g>
    <g id="xtick_52">
     <g id="line2d_52">
      <g>
       <use style="stroke:#000000;stroke-width:0.8;" x="1250.543144" xlink:href="#mcb6e20a0ac" y="902.449121"/>
      </g>
     </g>
     <g id="text_52">
      <!-- Algeria -->
      <g transform="translate(1219.073333 933.598311)rotate(-30)scale(0.1 -0.1)">
       <use xlink:href="#DejaVuSans-65"/>
       <use x="68.408203" xlink:href="#DejaVuSans-108"/>
       <use x="96.191406" xlink:href="#DejaVuSans-103"/>
       <use x="159.667969" xlink:href="#DejaVuSans-101"/>
       <use x="221.191406" xlink:href="#DejaVuSans-114"/>
       <use x="262.304688" xlink:href="#DejaVuSans-105"/>
       <use x="290.087891" xlink:href="#DejaVuSans-97"/>
      </g>
     </g>
    </g>
    <g id="xtick_53">
     <g id="line2d_53">
      <g>
       <use style="stroke:#000000;stroke-width:0.8;" x="1273.790037" xlink:href="#mcb6e20a0ac" y="902.449121"/>
      </g>
     </g>
     <g id="text_53">
      <!-- New Zealand -->
      <defs>
       <path d="M 5.609375 72.90625 
L 62.890625 72.90625 
L 62.890625 65.375 
L 16.796875 8.296875 
L 64.015625 8.296875 
L 64.015625 0 
L 4.5 0 
L 4.5 7.515625 
L 50.59375 64.59375 
L 5.609375 64.59375 
z
" id="DejaVuSans-90"/>
      </defs>
      <g transform="translate(1215.840146 948.886592)rotate(-30)scale(0.1 -0.1)">
       <use xlink:href="#DejaVuSans-78"/>
       <use x="74.804688" xlink:href="#DejaVuSans-101"/>
       <use x="136.328125" xlink:href="#DejaVuSans-119"/>
       <use x="218.115234" xlink:href="#DejaVuSans-32"/>
       <use x="249.902344" xlink:href="#DejaVuSans-90"/>
       <use x="318.408203" xlink:href="#DejaVuSans-101"/>
       <use x="379.931641" xlink:href="#DejaVuSans-97"/>
       <use x="441.210938" xlink:href="#DejaVuSans-108"/>
       <use x="468.994141" xlink:href="#DejaVuSans-97"/>
       <use x="530.273438" xlink:href="#DejaVuSans-110"/>
       <use x="593.652344" xlink:href="#DejaVuSans-100"/>
      </g>
     </g>
    </g>
    <g id="xtick_54">
     <g id="line2d_54">
      <g>
       <use style="stroke:#000000;stroke-width:0.8;" x="1297.036931" xlink:href="#mcb6e20a0ac" y="902.449121"/>
      </g>
     </g>
     <g id="text_54">
      <!-- Tunisia -->
      <g transform="translate(1266.410141 933.111592)rotate(-30)scale(0.1 -0.1)">
       <use xlink:href="#DejaVuSans-84"/>
       <use x="45.958984" xlink:href="#DejaVuSans-117"/>
       <use x="109.337891" xlink:href="#DejaVuSans-110"/>
       <use x="172.716797" xlink:href="#DejaVuSans-105"/>
       <use x="200.5" xlink:href="#DejaVuSans-115"/>
       <use x="252.599609" xlink:href="#DejaVuSans-105"/>
       <use x="280.382812" xlink:href="#DejaVuSans-97"/>
      </g>
     </g>
    </g>
    <g id="xtick_55">
     <g id="line2d_55">
      <g>
       <use style="stroke:#000000;stroke-width:0.8;" x="1320.283825" xlink:href="#mcb6e20a0ac" y="902.449121"/>
      </g>
     </g>
     <g id="text_55">
      <!-- Philippines -->
      <g transform="translate(1272.585509 942.967842)rotate(-30)scale(0.1 -0.1)">
       <use xlink:href="#DejaVuSans-80"/>
       <use x="60.302734" xlink:href="#DejaVuSans-104"/>
       <use x="123.681641" xlink:href="#DejaVuSans-105"/>
       <use x="151.464844" xlink:href="#DejaVuSans-108"/>
       <use x="179.248047" xlink:href="#DejaVuSans-105"/>
       <use x="207.03125" xlink:href="#DejaVuSans-112"/>
       <use x="270.507812" xlink:href="#DejaVuSans-112"/>
       <use x="333.984375" xlink:href="#DejaVuSans-105"/>
       <use x="361.767578" xlink:href="#DejaVuSans-110"/>
       <use x="425.146484" xlink:href="#DejaVuSans-101"/>
       <use x="486.669922" xlink:href="#DejaVuSans-115"/>
      </g>
     </g>
    </g>
    <g id="xtick_56">
     <g id="line2d_56">
      <g>
       <use style="stroke:#000000;stroke-width:0.8;" x="1343.530718" xlink:href="#mcb6e20a0ac" y="902.449121"/>
      </g>
     </g>
     <g id="text_56">
      <!-- Malaysia -->
      <g transform="translate(1304.648271 937.877998)rotate(-30)scale(0.1 -0.1)">
       <use xlink:href="#DejaVuSans-77"/>
       <use x="86.279297" xlink:href="#DejaVuSans-97"/>
       <use x="147.558594" xlink:href="#DejaVuSans-108"/>
       <use x="175.341797" xlink:href="#DejaVuSans-97"/>
       <use x="236.621094" xlink:href="#DejaVuSans-121"/>
       <use x="295.800781" xlink:href="#DejaVuSans-115"/>
       <use x="347.900391" xlink:href="#DejaVuSans-105"/>
       <use x="375.683594" xlink:href="#DejaVuSans-97"/>
      </g>
     </g>
    </g>
    <g id="xtick_57">
     <g id="line2d_57">
      <g>
       <use style="stroke:#000000;stroke-width:0.8;" x="1366.777612" xlink:href="#mcb6e20a0ac" y="902.449121"/>
      </g>
     </g>
     <g id="text_57">
      <!-- Republic of Korea -->
      <g transform="translate(1290.324547 959.569405)rotate(-30)scale(0.1 -0.1)">
       <use xlink:href="#DejaVuSans-82"/>
       <use x="64.982422" xlink:href="#DejaVuSans-101"/>
       <use x="126.505859" xlink:href="#DejaVuSans-112"/>
       <use x="189.982422" xlink:href="#DejaVuSans-117"/>
       <use x="253.361328" xlink:href="#DejaVuSans-98"/>
       <use x="316.837891" xlink:href="#DejaVuSans-108"/>
       <use x="344.621094" xlink:href="#DejaVuSans-105"/>
       <use x="372.404297" xlink:href="#DejaVuSans-99"/>
       <use x="427.384766" xlink:href="#DejaVuSans-32"/>
       <use x="459.171875" xlink:href="#DejaVuSans-111"/>
       <use x="520.353516" xlink:href="#DejaVuSans-102"/>
       <use x="555.558594" xlink:href="#DejaVuSans-32"/>
       <use x="587.345703" xlink:href="#DejaVuSans-75"/>
       <use x="647.921875" xlink:href="#DejaVuSans-111"/>
       <use x="709.103516" xlink:href="#DejaVuSans-114"/>
       <use x="747.966797" xlink:href="#DejaVuSans-101"/>
       <use x="809.490234" xlink:href="#DejaVuSans-97"/>
      </g>
     </g>
    </g>
    <g id="xtick_58">
     <g id="line2d_58">
      <g>
       <use style="stroke:#000000;stroke-width:0.8;" x="1390.024505" xlink:href="#mcb6e20a0ac" y="902.449121"/>
      </g>
     </g>
     <g id="text_58">
      <!-- Denmark -->
      <defs>
       <path d="M 19.671875 64.796875 
L 19.671875 8.109375 
L 31.59375 8.109375 
Q 46.6875 8.109375 53.6875 14.9375 
Q 60.6875 21.78125 60.6875 36.53125 
Q 60.6875 51.171875 53.6875 57.984375 
Q 46.6875 64.796875 31.59375 64.796875 
z
M 9.8125 72.90625 
L 30.078125 72.90625 
Q 51.265625 72.90625 61.171875 64.09375 
Q 71.09375 55.28125 71.09375 36.53125 
Q 71.09375 17.671875 61.125 8.828125 
Q 51.171875 0 30.078125 0 
L 9.8125 0 
z
" id="DejaVuSans-68"/>
      </defs>
      <g transform="translate(1349.181322 939.01003)rotate(-30)scale(0.1 -0.1)">
       <use xlink:href="#DejaVuSans-68"/>
       <use x="77.001953" xlink:href="#DejaVuSans-101"/>
       <use x="138.525391" xlink:href="#DejaVuSans-110"/>
       <use x="201.904297" xlink:href="#DejaVuSans-109"/>
       <use x="299.316406" xlink:href="#DejaVuSans-97"/>
       <use x="360.595703" xlink:href="#DejaVuSans-114"/>
       <use x="401.708984" xlink:href="#DejaVuSans-107"/>
      </g>
     </g>
    </g>
    <g id="xtick_59">
     <g id="line2d_59">
      <g>
       <use style="stroke:#000000;stroke-width:0.8;" x="1413.271399" xlink:href="#mcb6e20a0ac" y="902.449121"/>
      </g>
     </g>
     <g id="text_59">
      <!-- Saudi Arabia -->
      <g transform="translate(1357.279537 947.756123)rotate(-30)scale(0.1 -0.1)">
       <use xlink:href="#DejaVuSans-83"/>
       <use x="63.476562" xlink:href="#DejaVuSans-97"/>
       <use x="124.755859" xlink:href="#DejaVuSans-117"/>
       <use x="188.134766" xlink:href="#DejaVuSans-100"/>
       <use x="251.611328" xlink:href="#DejaVuSans-105"/>
       <use x="279.394531" xlink:href="#DejaVuSans-32"/>
       <use x="311.181641" xlink:href="#DejaVuSans-65"/>
       <use x="379.589844" xlink:href="#DejaVuSans-114"/>
       <use x="420.703125" xlink:href="#DejaVuSans-97"/>
       <use x="481.982422" xlink:href="#DejaVuSans-98"/>
       <use x="545.458984" xlink:href="#DejaVuSans-105"/>
       <use x="573.242188" xlink:href="#DejaVuSans-97"/>
      </g>
     </g>
    </g>
    <g id="text_60">
     <!-- Country -->
     <g transform="translate(719.248204 1063.185311)scale(0.1 -0.1)">
      <use xlink:href="#DejaVuSans-67"/>
      <use x="69.824219" xlink:href="#DejaVuSans-111"/>
      <use x="131.005859" xlink:href="#DejaVuSans-117"/>
      <use x="194.384766" xlink:href="#DejaVuSans-110"/>
      <use x="257.763672" xlink:href="#DejaVuSans-116"/>
      <use x="296.972656" xlink:href="#DejaVuSans-114"/>
      <use x="338.085938" xlink:href="#DejaVuSans-121"/>
     </g>
    </g>
   </g>
   <g id="matplotlib.axis_2">
    <g id="ytick_1">
     <g id="line2d_60">
      <defs>
       <path d="M 0 0 
L -3.5 0 
" id="m61b81ca4e3" style="stroke:#000000;stroke-width:0.8;"/>
      </defs>
      <g>
       <use style="stroke:#000000;stroke-width:0.8;" x="53.328125" xlink:href="#m61b81ca4e3" y="902.449121"/>
      </g>
     </g>
     <g id="text_61">
      <!-- 0 -->
      <defs>
       <path d="M 31.78125 66.40625 
Q 24.171875 66.40625 20.328125 58.90625 
Q 16.5 51.421875 16.5 36.375 
Q 16.5 21.390625 20.328125 13.890625 
Q 24.171875 6.390625 31.78125 6.390625 
Q 39.453125 6.390625 43.28125 13.890625 
Q 47.125 21.390625 47.125 36.375 
Q 47.125 51.421875 43.28125 58.90625 
Q 39.453125 66.40625 31.78125 66.40625 
z
M 31.78125 74.21875 
Q 44.046875 74.21875 50.515625 64.515625 
Q 56.984375 54.828125 56.984375 36.375 
Q 56.984375 17.96875 50.515625 8.265625 
Q 44.046875 -1.421875 31.78125 -1.421875 
Q 19.53125 -1.421875 13.0625 8.265625 
Q 6.59375 17.96875 6.59375 36.375 
Q 6.59375 54.828125 13.0625 64.515625 
Q 19.53125 74.21875 31.78125 74.21875 
z
" id="DejaVuSans-48"/>
      </defs>
      <g transform="translate(39.965625 906.24834)scale(0.1 -0.1)">
       <use xlink:href="#DejaVuSans-48"/>
      </g>
     </g>
    </g>
    <g id="ytick_2">
     <g id="line2d_61">
      <g>
       <use style="stroke:#000000;stroke-width:0.8;" x="53.328125" xlink:href="#m61b81ca4e3" y="712.48319"/>
      </g>
     </g>
     <g id="text_62">
      <!-- 500 -->
      <defs>
       <path d="M 10.796875 72.90625 
L 49.515625 72.90625 
L 49.515625 64.59375 
L 19.828125 64.59375 
L 19.828125 46.734375 
Q 21.96875 47.46875 24.109375 47.828125 
Q 26.265625 48.1875 28.421875 48.1875 
Q 40.625 48.1875 47.75 41.5 
Q 54.890625 34.8125 54.890625 23.390625 
Q 54.890625 11.625 47.5625 5.09375 
Q 40.234375 -1.421875 26.90625 -1.421875 
Q 22.3125 -1.421875 17.546875 -0.640625 
Q 12.796875 0.140625 7.71875 1.703125 
L 7.71875 11.625 
Q 12.109375 9.234375 16.796875 8.0625 
Q 21.484375 6.890625 26.703125 6.890625 
Q 35.15625 6.890625 40.078125 11.328125 
Q 45.015625 15.765625 45.015625 23.390625 
Q 45.015625 31 40.078125 35.4375 
Q 35.15625 39.890625 26.703125 39.890625 
Q 22.75 39.890625 18.8125 39.015625 
Q 14.890625 38.140625 10.796875 36.28125 
z
" id="DejaVuSans-53"/>
      </defs>
      <g transform="translate(27.240625 716.282409)scale(0.1 -0.1)">
       <use xlink:href="#DejaVuSans-53"/>
       <use x="63.623047" xlink:href="#DejaVuSans-48"/>
       <use x="127.246094" xlink:href="#DejaVuSans-48"/>
      </g>
     </g>
    </g>
    <g id="ytick_3">
     <g id="line2d_62">
      <g>
       <use style="stroke:#000000;stroke-width:0.8;" x="53.328125" xlink:href="#m61b81ca4e3" y="522.517259"/>
      </g>
     </g>
     <g id="text_63">
      <!-- 1000 -->
      <defs>
       <path d="M 12.40625 8.296875 
L 28.515625 8.296875 
L 28.515625 63.921875 
L 10.984375 60.40625 
L 10.984375 69.390625 
L 28.421875 72.90625 
L 38.28125 72.90625 
L 38.28125 8.296875 
L 54.390625 8.296875 
L 54.390625 0 
L 12.40625 0 
z
" id="DejaVuSans-49"/>
      </defs>
      <g transform="translate(20.878125 526.316477)scale(0.1 -0.1)">
       <use xlink:href="#DejaVuSans-49"/>
       <use x="63.623047" xlink:href="#DejaVuSans-48"/>
       <use x="127.246094" xlink:href="#DejaVuSans-48"/>
       <use x="190.869141" xlink:href="#DejaVuSans-48"/>
      </g>
     </g>
    </g>
    <g id="ytick_4">
     <g id="line2d_63">
      <g>
       <use style="stroke:#000000;stroke-width:0.8;" x="53.328125" xlink:href="#m61b81ca4e3" y="332.551327"/>
      </g>
     </g>
     <g id="text_64">
      <!-- 1500 -->
      <g transform="translate(20.878125 336.350546)scale(0.1 -0.1)">
       <use xlink:href="#DejaVuSans-49"/>
       <use x="63.623047" xlink:href="#DejaVuSans-53"/>
       <use x="127.246094" xlink:href="#DejaVuSans-48"/>
       <use x="190.869141" xlink:href="#DejaVuSans-48"/>
      </g>
     </g>
    </g>
    <g id="ytick_5">
     <g id="line2d_64">
      <g>
       <use style="stroke:#000000;stroke-width:0.8;" x="53.328125" xlink:href="#m61b81ca4e3" y="142.585396"/>
      </g>
     </g>
     <g id="text_65">
      <!-- 2000 -->
      <defs>
       <path d="M 19.1875 8.296875 
L 53.609375 8.296875 
L 53.609375 0 
L 7.328125 0 
L 7.328125 8.296875 
Q 12.9375 14.109375 22.625 23.890625 
Q 32.328125 33.6875 34.8125 36.53125 
Q 39.546875 41.84375 41.421875 45.53125 
Q 43.3125 49.21875 43.3125 52.78125 
Q 43.3125 58.59375 39.234375 62.25 
Q 35.15625 65.921875 28.609375 65.921875 
Q 23.96875 65.921875 18.8125 64.3125 
Q 13.671875 62.703125 7.8125 59.421875 
L 7.8125 69.390625 
Q 13.765625 71.78125 18.9375 73 
Q 24.125 74.21875 28.421875 74.21875 
Q 39.75 74.21875 46.484375 68.546875 
Q 53.21875 62.890625 53.21875 53.421875 
Q 53.21875 48.921875 51.53125 44.890625 
Q 49.859375 40.875 45.40625 35.40625 
Q 44.1875 33.984375 37.640625 27.21875 
Q 31.109375 20.453125 19.1875 8.296875 
z
" id="DejaVuSans-50"/>
      </defs>
      <g transform="translate(20.878125 146.384615)scale(0.1 -0.1)">
       <use xlink:href="#DejaVuSans-50"/>
       <use x="63.623047" xlink:href="#DejaVuSans-48"/>
       <use x="127.246094" xlink:href="#DejaVuSans-48"/>
       <use x="190.869141" xlink:href="#DejaVuSans-48"/>
      </g>
     </g>
    </g>
    <g id="text_66">
     <!-- Count -->
     <g transform="translate(14.798438 480.271435)rotate(-90)scale(0.1 -0.1)">
      <use xlink:href="#DejaVuSans-67"/>
      <use x="69.824219" xlink:href="#DejaVuSans-111"/>
      <use x="131.005859" xlink:href="#DejaVuSans-117"/>
      <use x="194.384766" xlink:href="#DejaVuSans-110"/>
      <use x="257.763672" xlink:href="#DejaVuSans-116"/>
     </g>
    </g>
   </g>
   <g id="patch_62">
    <path d="M 53.328125 902.449121 
L 53.328125 28.396875 
" style="fill:none;stroke:#000000;stroke-linecap:square;stroke-linejoin:miter;stroke-width:0.8;"/>
   </g>
   <g id="patch_63">
    <path d="M 1424.894846 902.449121 
L 1424.894846 28.396875 
" style="fill:none;stroke:#000000;stroke-linecap:square;stroke-linejoin:miter;stroke-width:0.8;"/>
   </g>
   <g id="patch_64">
    <path d="M 53.328125 902.449121 
L 1424.894846 902.449121 
" style="fill:none;stroke:#000000;stroke-linecap:square;stroke-linejoin:miter;stroke-width:0.8;"/>
   </g>
   <g id="patch_65">
    <path d="M 53.328125 28.396875 
L 1424.894846 28.396875 
" style="fill:none;stroke:#000000;stroke-linecap:square;stroke-linejoin:miter;stroke-width:0.8;"/>
   </g>
   <g id="text_67">
    <!-- Countplot of Country Data -->
    <g transform="translate(607.472423 22.396875)scale(0.2 -0.2)">
     <use xlink:href="#DejaVuSans-67"/>
     <use x="69.824219" xlink:href="#DejaVuSans-111"/>
     <use x="131.005859" xlink:href="#DejaVuSans-117"/>
     <use x="194.384766" xlink:href="#DejaVuSans-110"/>
     <use x="257.763672" xlink:href="#DejaVuSans-116"/>
     <use x="296.972656" xlink:href="#DejaVuSans-112"/>
     <use x="360.449219" xlink:href="#DejaVuSans-108"/>
     <use x="388.232422" xlink:href="#DejaVuSans-111"/>
     <use x="449.414062" xlink:href="#DejaVuSans-116"/>
     <use x="488.623047" xlink:href="#DejaVuSans-32"/>
     <use x="520.410156" xlink:href="#DejaVuSans-111"/>
     <use x="581.591797" xlink:href="#DejaVuSans-102"/>
     <use x="616.796875" xlink:href="#DejaVuSans-32"/>
     <use x="648.583984" xlink:href="#DejaVuSans-67"/>
     <use x="718.408203" xlink:href="#DejaVuSans-111"/>
     <use x="779.589844" xlink:href="#DejaVuSans-117"/>
     <use x="842.96875" xlink:href="#DejaVuSans-110"/>
     <use x="906.347656" xlink:href="#DejaVuSans-116"/>
     <use x="945.556641" xlink:href="#DejaVuSans-114"/>
     <use x="986.669922" xlink:href="#DejaVuSans-121"/>
     <use x="1045.849609" xlink:href="#DejaVuSans-32"/>
     <use x="1077.636719" xlink:href="#DejaVuSans-68"/>
     <use x="1154.638672" xlink:href="#DejaVuSans-97"/>
     <use x="1215.917969" xlink:href="#DejaVuSans-116"/>
     <use x="1255.126953" xlink:href="#DejaVuSans-97"/>
    </g>
   </g>
  </g>
 </g>
 <defs>
  <clipPath id="pca74d37982">
   <rect height="874.052246" width="1371.566721" x="53.328125" y="28.396875"/>
  </clipPath>
 </defs>
</svg>
